%TF.GenerationSoftware,KiCad,Pcbnew,(6.0.0)*%
%TF.CreationDate,2022-01-12T18:34:34+03:00*%
%TF.ProjectId,UnderControl_V6,556e6465-7243-46f6-9e74-726f6c5f5636,1.6*%
%TF.SameCoordinates,Original*%
%TF.FileFunction,Soldermask,Top*%
%TF.FilePolarity,Negative*%
%FSLAX46Y46*%
G04 Gerber Fmt 4.6, Leading zero omitted, Abs format (unit mm)*
G04 Created by KiCad (PCBNEW (6.0.0)) date 2022-01-12 18:34:34*
%MOMM*%
%LPD*%
G01*
G04 APERTURE LIST*
G04 Aperture macros list*
%AMRoundRect*
0 Rectangle with rounded corners*
0 $1 Rounding radius*
0 $2 $3 $4 $5 $6 $7 $8 $9 X,Y pos of 4 corners*
0 Add a 4 corners polygon primitive as box body*
4,1,4,$2,$3,$4,$5,$6,$7,$8,$9,$2,$3,0*
0 Add four circle primitives for the rounded corners*
1,1,$1+$1,$2,$3*
1,1,$1+$1,$4,$5*
1,1,$1+$1,$6,$7*
1,1,$1+$1,$8,$9*
0 Add four rect primitives between the rounded corners*
20,1,$1+$1,$2,$3,$4,$5,0*
20,1,$1+$1,$4,$5,$6,$7,0*
20,1,$1+$1,$6,$7,$8,$9,0*
20,1,$1+$1,$8,$9,$2,$3,0*%
%AMFreePoly0*
4,1,6,1.000000,0.000000,0.500000,-0.750000,-0.500000,-0.750000,-0.500000,0.750000,0.500000,0.750000,1.000000,0.000000,1.000000,0.000000,$1*%
%AMFreePoly1*
4,1,6,0.500000,-0.750000,-0.650000,-0.750000,-0.150000,0.000000,-0.650000,0.750000,0.500000,0.750000,0.500000,-0.750000,0.500000,-0.750000,$1*%
G04 Aperture macros list end*
%ADD10C,0.000100*%
%ADD11RoundRect,0.075000X-0.662500X-0.075000X0.662500X-0.075000X0.662500X0.075000X-0.662500X0.075000X0*%
%ADD12RoundRect,0.075000X-0.075000X-0.662500X0.075000X-0.662500X0.075000X0.662500X-0.075000X0.662500X0*%
%ADD13RoundRect,0.135000X-0.185000X0.135000X-0.185000X-0.135000X0.185000X-0.135000X0.185000X0.135000X0*%
%ADD14RoundRect,0.135000X0.185000X-0.135000X0.185000X0.135000X-0.185000X0.135000X-0.185000X-0.135000X0*%
%ADD15RoundRect,0.135000X0.135000X0.185000X-0.135000X0.185000X-0.135000X-0.185000X0.135000X-0.185000X0*%
%ADD16RoundRect,0.135000X-0.135000X-0.185000X0.135000X-0.185000X0.135000X0.185000X-0.135000X0.185000X0*%
%ADD17RoundRect,0.150000X-0.587500X-0.150000X0.587500X-0.150000X0.587500X0.150000X-0.587500X0.150000X0*%
%ADD18O,1.700000X1.700000*%
%ADD19R,1.700000X1.700000*%
%ADD20RoundRect,0.218750X0.256250X-0.218750X0.256250X0.218750X-0.256250X0.218750X-0.256250X-0.218750X0*%
%ADD21RoundRect,0.218750X-0.218750X-0.256250X0.218750X-0.256250X0.218750X0.256250X-0.218750X0.256250X0*%
%ADD22RoundRect,0.140000X0.170000X-0.140000X0.170000X0.140000X-0.170000X0.140000X-0.170000X-0.140000X0*%
%ADD23RoundRect,0.140000X0.140000X0.170000X-0.140000X0.170000X-0.140000X-0.170000X0.140000X-0.170000X0*%
%ADD24RoundRect,0.225000X0.225000X0.250000X-0.225000X0.250000X-0.225000X-0.250000X0.225000X-0.250000X0*%
%ADD25RoundRect,0.250000X1.500000X0.550000X-1.500000X0.550000X-1.500000X-0.550000X1.500000X-0.550000X0*%
%ADD26RoundRect,0.250000X-1.500000X-0.550000X1.500000X-0.550000X1.500000X0.550000X-1.500000X0.550000X0*%
%ADD27RoundRect,0.225000X-0.225000X-0.250000X0.225000X-0.250000X0.225000X0.250000X-0.225000X0.250000X0*%
%ADD28RoundRect,0.140000X-0.140000X-0.170000X0.140000X-0.170000X0.140000X0.170000X-0.140000X0.170000X0*%
%ADD29RoundRect,0.250000X-0.650000X0.325000X-0.650000X-0.325000X0.650000X-0.325000X0.650000X0.325000X0*%
%ADD30RoundRect,0.225000X-0.250000X0.225000X-0.250000X-0.225000X0.250000X-0.225000X0.250000X0.225000X0*%
%ADD31RoundRect,0.225000X0.250000X-0.225000X0.250000X0.225000X-0.250000X0.225000X-0.250000X-0.225000X0*%
%ADD32RoundRect,0.243750X0.456250X-0.243750X0.456250X0.243750X-0.456250X0.243750X-0.456250X-0.243750X0*%
%ADD33RoundRect,0.243750X0.243750X0.456250X-0.243750X0.456250X-0.243750X-0.456250X0.243750X-0.456250X0*%
%ADD34R,0.550000X0.800000*%
%ADD35C,0.900000*%
%ADD36R,1.400000X0.700000*%
%ADD37R,1.400000X1.600000*%
%ADD38R,2.200000X1.200000*%
%ADD39C,1.600000*%
%ADD40R,1.600000X1.600000*%
%ADD41C,4.000000*%
%ADD42R,1.050000X1.100000*%
%ADD43R,1.100000X2.250000*%
%ADD44R,0.900000X1.200000*%
%ADD45R,1.300000X1.800000*%
%ADD46R,2.500000X1.200000*%
%ADD47C,1.500000*%
%ADD48RoundRect,0.200000X-0.200000X-0.275000X0.200000X-0.275000X0.200000X0.275000X-0.200000X0.275000X0*%
%ADD49FreePoly0,180.000000*%
%ADD50FreePoly1,180.000000*%
%ADD51RoundRect,0.140000X-0.170000X0.140000X-0.170000X-0.140000X0.170000X-0.140000X0.170000X0.140000X0*%
%ADD52RoundRect,0.250000X-0.625000X0.375000X-0.625000X-0.375000X0.625000X-0.375000X0.625000X0.375000X0*%
%ADD53RoundRect,0.218750X0.218750X0.256250X-0.218750X0.256250X-0.218750X-0.256250X0.218750X-0.256250X0*%
%ADD54RoundRect,0.150000X0.512500X0.150000X-0.512500X0.150000X-0.512500X-0.150000X0.512500X-0.150000X0*%
%ADD55R,2.600000X1.100000*%
%ADD56R,3.200000X3.200000*%
%ADD57RoundRect,0.218750X-0.218750X-0.381250X0.218750X-0.381250X0.218750X0.381250X-0.218750X0.381250X0*%
%ADD58R,1.700000X1.000000*%
%ADD59R,4.600000X1.100000*%
%ADD60R,9.400000X10.800000*%
%ADD61R,0.600000X1.600000*%
%ADD62R,1.600000X0.600000*%
%ADD63RoundRect,0.243750X-0.456250X0.243750X-0.456250X-0.243750X0.456250X-0.243750X0.456250X0.243750X0*%
%ADD64RoundRect,0.249100X1.125900X1.075900X-1.125900X1.075900X-1.125900X-1.075900X1.125900X-1.075900X0*%
%ADD65RoundRect,0.075000X0.350000X0.075000X-0.350000X0.075000X-0.350000X-0.075000X0.350000X-0.075000X0*%
%ADD66RoundRect,0.075000X-0.075000X0.350000X-0.075000X-0.350000X0.075000X-0.350000X0.075000X0.350000X0*%
%ADD67RoundRect,0.218750X0.218750X0.381250X-0.218750X0.381250X-0.218750X-0.381250X0.218750X-0.381250X0*%
%ADD68R,1.350000X0.400000*%
%ADD69O,0.650000X1.300000*%
%ADD70O,1.550000X0.775000*%
%ADD71R,1.550000X1.500000*%
%ADD72C,0.800000*%
%ADD73C,5.000000*%
%ADD74RoundRect,0.150000X0.150000X-0.587500X0.150000X0.587500X-0.150000X0.587500X-0.150000X-0.587500X0*%
%ADD75RoundRect,0.150000X0.650000X0.150000X-0.650000X0.150000X-0.650000X-0.150000X0.650000X-0.150000X0*%
%ADD76R,1.525000X0.700000*%
%ADD77R,2.513000X3.402000*%
%ADD78R,1.500000X2.000000*%
%ADD79R,3.800000X2.000000*%
%ADD80R,0.600000X1.970000*%
%ADD81R,1.060000X0.390000*%
%ADD82R,0.400000X1.350000*%
%ADD83O,1.300000X0.650000*%
%ADD84O,0.775000X1.550000*%
%ADD85R,1.500000X1.550000*%
%ADD86R,1.508000X1.508000*%
%ADD87C,1.508000*%
%ADD88R,1.200000X1.400000*%
G04 APERTURE END LIST*
D10*
%TO.C,J8*%
X148375000Y-84850000D02*
X148375000Y-83450000D01*
X148375000Y-83450000D02*
X150125000Y-83450000D01*
X150125000Y-83450000D02*
X150125000Y-84850000D01*
X150125000Y-84850000D02*
X150124000Y-84876000D01*
X150124000Y-84876000D02*
X150122000Y-84902000D01*
X150122000Y-84902000D02*
X150119000Y-84928000D01*
X150119000Y-84928000D02*
X150114000Y-84954000D01*
X150114000Y-84954000D02*
X150108000Y-84979000D01*
X150108000Y-84979000D02*
X150101000Y-85005000D01*
X150101000Y-85005000D02*
X150092000Y-85029000D01*
X150092000Y-85029000D02*
X150082000Y-85053000D01*
X150082000Y-85053000D02*
X150071000Y-85077000D01*
X150071000Y-85077000D02*
X150058000Y-85100000D01*
X150058000Y-85100000D02*
X150044000Y-85122000D01*
X150044000Y-85122000D02*
X150030000Y-85144000D01*
X150030000Y-85144000D02*
X150014000Y-85165000D01*
X150014000Y-85165000D02*
X149997000Y-85185000D01*
X149997000Y-85185000D02*
X149979000Y-85204000D01*
X149979000Y-85204000D02*
X149960000Y-85222000D01*
X149960000Y-85222000D02*
X149940000Y-85239000D01*
X149940000Y-85239000D02*
X149919000Y-85255000D01*
X149919000Y-85255000D02*
X149897000Y-85269000D01*
X149897000Y-85269000D02*
X149875000Y-85283000D01*
X149875000Y-85283000D02*
X149852000Y-85296000D01*
X149852000Y-85296000D02*
X149828000Y-85307000D01*
X149828000Y-85307000D02*
X149804000Y-85317000D01*
X149804000Y-85317000D02*
X149780000Y-85326000D01*
X149780000Y-85326000D02*
X149754000Y-85333000D01*
X149754000Y-85333000D02*
X149729000Y-85339000D01*
X149729000Y-85339000D02*
X149703000Y-85344000D01*
X149703000Y-85344000D02*
X149677000Y-85347000D01*
X149677000Y-85347000D02*
X149651000Y-85349000D01*
X149651000Y-85349000D02*
X149625000Y-85350000D01*
X149625000Y-85350000D02*
X148875000Y-85350000D01*
X148875000Y-85350000D02*
X148849000Y-85349000D01*
X148849000Y-85349000D02*
X148823000Y-85347000D01*
X148823000Y-85347000D02*
X148797000Y-85344000D01*
X148797000Y-85344000D02*
X148771000Y-85339000D01*
X148771000Y-85339000D02*
X148746000Y-85333000D01*
X148746000Y-85333000D02*
X148720000Y-85326000D01*
X148720000Y-85326000D02*
X148696000Y-85317000D01*
X148696000Y-85317000D02*
X148672000Y-85307000D01*
X148672000Y-85307000D02*
X148648000Y-85296000D01*
X148648000Y-85296000D02*
X148625000Y-85283000D01*
X148625000Y-85283000D02*
X148603000Y-85269000D01*
X148603000Y-85269000D02*
X148581000Y-85255000D01*
X148581000Y-85255000D02*
X148560000Y-85239000D01*
X148560000Y-85239000D02*
X148540000Y-85222000D01*
X148540000Y-85222000D02*
X148521000Y-85204000D01*
X148521000Y-85204000D02*
X148503000Y-85185000D01*
X148503000Y-85185000D02*
X148486000Y-85165000D01*
X148486000Y-85165000D02*
X148470000Y-85144000D01*
X148470000Y-85144000D02*
X148456000Y-85122000D01*
X148456000Y-85122000D02*
X148442000Y-85100000D01*
X148442000Y-85100000D02*
X148429000Y-85077000D01*
X148429000Y-85077000D02*
X148418000Y-85053000D01*
X148418000Y-85053000D02*
X148408000Y-85029000D01*
X148408000Y-85029000D02*
X148399000Y-85005000D01*
X148399000Y-85005000D02*
X148392000Y-84979000D01*
X148392000Y-84979000D02*
X148386000Y-84954000D01*
X148386000Y-84954000D02*
X148381000Y-84928000D01*
X148381000Y-84928000D02*
X148378000Y-84902000D01*
X148378000Y-84902000D02*
X148376000Y-84876000D01*
X148376000Y-84876000D02*
X148375000Y-84850000D01*
X148375000Y-84850000D02*
X148375000Y-84850000D01*
G36*
X150125000Y-84850000D02*
G01*
X150124000Y-84876000D01*
X150122000Y-84902000D01*
X150119000Y-84928000D01*
X150114000Y-84954000D01*
X150108000Y-84979000D01*
X150101000Y-85005000D01*
X150092000Y-85029000D01*
X150082000Y-85053000D01*
X150071000Y-85077000D01*
X150058000Y-85100000D01*
X150030000Y-85144000D01*
X150014000Y-85165000D01*
X149997000Y-85185000D01*
X149979000Y-85204000D01*
X149960000Y-85222000D01*
X149940000Y-85239000D01*
X149919000Y-85255000D01*
X149875000Y-85283000D01*
X149852000Y-85296000D01*
X149828000Y-85307000D01*
X149804000Y-85317000D01*
X149780000Y-85326000D01*
X149754000Y-85333000D01*
X149729000Y-85339000D01*
X149703000Y-85344000D01*
X149677000Y-85347000D01*
X149651000Y-85349000D01*
X149625000Y-85350000D01*
X148875000Y-85350000D01*
X148849000Y-85349000D01*
X148823000Y-85347000D01*
X148797000Y-85344000D01*
X148771000Y-85339000D01*
X148746000Y-85333000D01*
X148720000Y-85326000D01*
X148696000Y-85317000D01*
X148672000Y-85307000D01*
X148648000Y-85296000D01*
X148625000Y-85283000D01*
X148581000Y-85255000D01*
X148560000Y-85239000D01*
X148540000Y-85222000D01*
X148521000Y-85204000D01*
X148503000Y-85185000D01*
X148486000Y-85165000D01*
X148470000Y-85144000D01*
X148442000Y-85100000D01*
X148429000Y-85077000D01*
X148418000Y-85053000D01*
X148408000Y-85029000D01*
X148399000Y-85005000D01*
X148392000Y-84979000D01*
X148386000Y-84954000D01*
X148381000Y-84928000D01*
X148378000Y-84902000D01*
X148376000Y-84876000D01*
X148375000Y-84850000D01*
X148375000Y-83450000D01*
X150125000Y-83450000D01*
X150125000Y-84850000D01*
G37*
X150125000Y-84850000D02*
X150124000Y-84876000D01*
X150122000Y-84902000D01*
X150119000Y-84928000D01*
X150114000Y-84954000D01*
X150108000Y-84979000D01*
X150101000Y-85005000D01*
X150092000Y-85029000D01*
X150082000Y-85053000D01*
X150071000Y-85077000D01*
X150058000Y-85100000D01*
X150030000Y-85144000D01*
X150014000Y-85165000D01*
X149997000Y-85185000D01*
X149979000Y-85204000D01*
X149960000Y-85222000D01*
X149940000Y-85239000D01*
X149919000Y-85255000D01*
X149875000Y-85283000D01*
X149852000Y-85296000D01*
X149828000Y-85307000D01*
X149804000Y-85317000D01*
X149780000Y-85326000D01*
X149754000Y-85333000D01*
X149729000Y-85339000D01*
X149703000Y-85344000D01*
X149677000Y-85347000D01*
X149651000Y-85349000D01*
X149625000Y-85350000D01*
X148875000Y-85350000D01*
X148849000Y-85349000D01*
X148823000Y-85347000D01*
X148797000Y-85344000D01*
X148771000Y-85339000D01*
X148746000Y-85333000D01*
X148720000Y-85326000D01*
X148696000Y-85317000D01*
X148672000Y-85307000D01*
X148648000Y-85296000D01*
X148625000Y-85283000D01*
X148581000Y-85255000D01*
X148560000Y-85239000D01*
X148540000Y-85222000D01*
X148521000Y-85204000D01*
X148503000Y-85185000D01*
X148486000Y-85165000D01*
X148470000Y-85144000D01*
X148442000Y-85100000D01*
X148429000Y-85077000D01*
X148418000Y-85053000D01*
X148408000Y-85029000D01*
X148399000Y-85005000D01*
X148392000Y-84979000D01*
X148386000Y-84954000D01*
X148381000Y-84928000D01*
X148378000Y-84902000D01*
X148376000Y-84876000D01*
X148375000Y-84850000D01*
X148375000Y-83450000D01*
X150125000Y-83450000D01*
X150125000Y-84850000D01*
X150125000Y-77650000D02*
X150125000Y-79050000D01*
X150125000Y-79050000D02*
X148375000Y-79050000D01*
X148375000Y-79050000D02*
X148375000Y-77650000D01*
X148375000Y-77650000D02*
X148376000Y-77624000D01*
X148376000Y-77624000D02*
X148378000Y-77598000D01*
X148378000Y-77598000D02*
X148381000Y-77572000D01*
X148381000Y-77572000D02*
X148386000Y-77546000D01*
X148386000Y-77546000D02*
X148392000Y-77521000D01*
X148392000Y-77521000D02*
X148399000Y-77495000D01*
X148399000Y-77495000D02*
X148408000Y-77471000D01*
X148408000Y-77471000D02*
X148418000Y-77447000D01*
X148418000Y-77447000D02*
X148429000Y-77423000D01*
X148429000Y-77423000D02*
X148442000Y-77400000D01*
X148442000Y-77400000D02*
X148456000Y-77378000D01*
X148456000Y-77378000D02*
X148470000Y-77356000D01*
X148470000Y-77356000D02*
X148486000Y-77335000D01*
X148486000Y-77335000D02*
X148503000Y-77315000D01*
X148503000Y-77315000D02*
X148521000Y-77296000D01*
X148521000Y-77296000D02*
X148540000Y-77278000D01*
X148540000Y-77278000D02*
X148560000Y-77261000D01*
X148560000Y-77261000D02*
X148581000Y-77245000D01*
X148581000Y-77245000D02*
X148603000Y-77231000D01*
X148603000Y-77231000D02*
X148625000Y-77217000D01*
X148625000Y-77217000D02*
X148648000Y-77204000D01*
X148648000Y-77204000D02*
X148672000Y-77193000D01*
X148672000Y-77193000D02*
X148696000Y-77183000D01*
X148696000Y-77183000D02*
X148720000Y-77174000D01*
X148720000Y-77174000D02*
X148746000Y-77167000D01*
X148746000Y-77167000D02*
X148771000Y-77161000D01*
X148771000Y-77161000D02*
X148797000Y-77156000D01*
X148797000Y-77156000D02*
X148823000Y-77153000D01*
X148823000Y-77153000D02*
X148849000Y-77151000D01*
X148849000Y-77151000D02*
X148875000Y-77150000D01*
X148875000Y-77150000D02*
X149625000Y-77150000D01*
X149625000Y-77150000D02*
X149651000Y-77151000D01*
X149651000Y-77151000D02*
X149677000Y-77153000D01*
X149677000Y-77153000D02*
X149703000Y-77156000D01*
X149703000Y-77156000D02*
X149729000Y-77161000D01*
X149729000Y-77161000D02*
X149754000Y-77167000D01*
X149754000Y-77167000D02*
X149780000Y-77174000D01*
X149780000Y-77174000D02*
X149804000Y-77183000D01*
X149804000Y-77183000D02*
X149828000Y-77193000D01*
X149828000Y-77193000D02*
X149852000Y-77204000D01*
X149852000Y-77204000D02*
X149875000Y-77217000D01*
X149875000Y-77217000D02*
X149897000Y-77231000D01*
X149897000Y-77231000D02*
X149919000Y-77245000D01*
X149919000Y-77245000D02*
X149940000Y-77261000D01*
X149940000Y-77261000D02*
X149960000Y-77278000D01*
X149960000Y-77278000D02*
X149979000Y-77296000D01*
X149979000Y-77296000D02*
X149997000Y-77315000D01*
X149997000Y-77315000D02*
X150014000Y-77335000D01*
X150014000Y-77335000D02*
X150030000Y-77356000D01*
X150030000Y-77356000D02*
X150044000Y-77378000D01*
X150044000Y-77378000D02*
X150058000Y-77400000D01*
X150058000Y-77400000D02*
X150071000Y-77423000D01*
X150071000Y-77423000D02*
X150082000Y-77447000D01*
X150082000Y-77447000D02*
X150092000Y-77471000D01*
X150092000Y-77471000D02*
X150101000Y-77495000D01*
X150101000Y-77495000D02*
X150108000Y-77521000D01*
X150108000Y-77521000D02*
X150114000Y-77546000D01*
X150114000Y-77546000D02*
X150119000Y-77572000D01*
X150119000Y-77572000D02*
X150122000Y-77598000D01*
X150122000Y-77598000D02*
X150124000Y-77624000D01*
X150124000Y-77624000D02*
X150125000Y-77650000D01*
X150125000Y-77650000D02*
X150125000Y-77650000D01*
G36*
X149651000Y-77151000D02*
G01*
X149677000Y-77153000D01*
X149703000Y-77156000D01*
X149729000Y-77161000D01*
X149754000Y-77167000D01*
X149780000Y-77174000D01*
X149804000Y-77183000D01*
X149828000Y-77193000D01*
X149852000Y-77204000D01*
X149875000Y-77217000D01*
X149919000Y-77245000D01*
X149940000Y-77261000D01*
X149960000Y-77278000D01*
X149979000Y-77296000D01*
X149997000Y-77315000D01*
X150014000Y-77335000D01*
X150030000Y-77356000D01*
X150058000Y-77400000D01*
X150071000Y-77423000D01*
X150082000Y-77447000D01*
X150092000Y-77471000D01*
X150101000Y-77495000D01*
X150108000Y-77521000D01*
X150114000Y-77546000D01*
X150119000Y-77572000D01*
X150122000Y-77598000D01*
X150124000Y-77624000D01*
X150125000Y-77650000D01*
X150125000Y-79050000D01*
X148375000Y-79050000D01*
X148375000Y-77650000D01*
X148376000Y-77624000D01*
X148378000Y-77598000D01*
X148381000Y-77572000D01*
X148386000Y-77546000D01*
X148392000Y-77521000D01*
X148399000Y-77495000D01*
X148408000Y-77471000D01*
X148418000Y-77447000D01*
X148429000Y-77423000D01*
X148442000Y-77400000D01*
X148470000Y-77356000D01*
X148486000Y-77335000D01*
X148503000Y-77315000D01*
X148521000Y-77296000D01*
X148540000Y-77278000D01*
X148560000Y-77261000D01*
X148581000Y-77245000D01*
X148625000Y-77217000D01*
X148648000Y-77204000D01*
X148672000Y-77193000D01*
X148696000Y-77183000D01*
X148720000Y-77174000D01*
X148746000Y-77167000D01*
X148771000Y-77161000D01*
X148797000Y-77156000D01*
X148823000Y-77153000D01*
X148849000Y-77151000D01*
X148875000Y-77150000D01*
X149625000Y-77150000D01*
X149651000Y-77151000D01*
G37*
X149651000Y-77151000D02*
X149677000Y-77153000D01*
X149703000Y-77156000D01*
X149729000Y-77161000D01*
X149754000Y-77167000D01*
X149780000Y-77174000D01*
X149804000Y-77183000D01*
X149828000Y-77193000D01*
X149852000Y-77204000D01*
X149875000Y-77217000D01*
X149919000Y-77245000D01*
X149940000Y-77261000D01*
X149960000Y-77278000D01*
X149979000Y-77296000D01*
X149997000Y-77315000D01*
X150014000Y-77335000D01*
X150030000Y-77356000D01*
X150058000Y-77400000D01*
X150071000Y-77423000D01*
X150082000Y-77447000D01*
X150092000Y-77471000D01*
X150101000Y-77495000D01*
X150108000Y-77521000D01*
X150114000Y-77546000D01*
X150119000Y-77572000D01*
X150122000Y-77598000D01*
X150124000Y-77624000D01*
X150125000Y-77650000D01*
X150125000Y-79050000D01*
X148375000Y-79050000D01*
X148375000Y-77650000D01*
X148376000Y-77624000D01*
X148378000Y-77598000D01*
X148381000Y-77572000D01*
X148386000Y-77546000D01*
X148392000Y-77521000D01*
X148399000Y-77495000D01*
X148408000Y-77471000D01*
X148418000Y-77447000D01*
X148429000Y-77423000D01*
X148442000Y-77400000D01*
X148470000Y-77356000D01*
X148486000Y-77335000D01*
X148503000Y-77315000D01*
X148521000Y-77296000D01*
X148540000Y-77278000D01*
X148560000Y-77261000D01*
X148581000Y-77245000D01*
X148625000Y-77217000D01*
X148648000Y-77204000D01*
X148672000Y-77193000D01*
X148696000Y-77183000D01*
X148720000Y-77174000D01*
X148746000Y-77167000D01*
X148771000Y-77161000D01*
X148797000Y-77156000D01*
X148823000Y-77153000D01*
X148849000Y-77151000D01*
X148875000Y-77150000D01*
X149625000Y-77150000D01*
X149651000Y-77151000D01*
%TO.C,J7*%
X75400000Y-149375000D02*
X76800000Y-149375000D01*
X76800000Y-149375000D02*
X76800000Y-151125000D01*
X76800000Y-151125000D02*
X75400000Y-151125000D01*
X75400000Y-151125000D02*
X75374000Y-151124000D01*
X75374000Y-151124000D02*
X75348000Y-151122000D01*
X75348000Y-151122000D02*
X75322000Y-151119000D01*
X75322000Y-151119000D02*
X75296000Y-151114000D01*
X75296000Y-151114000D02*
X75271000Y-151108000D01*
X75271000Y-151108000D02*
X75245000Y-151101000D01*
X75245000Y-151101000D02*
X75221000Y-151092000D01*
X75221000Y-151092000D02*
X75197000Y-151082000D01*
X75197000Y-151082000D02*
X75173000Y-151071000D01*
X75173000Y-151071000D02*
X75150000Y-151058000D01*
X75150000Y-151058000D02*
X75128000Y-151044000D01*
X75128000Y-151044000D02*
X75106000Y-151030000D01*
X75106000Y-151030000D02*
X75085000Y-151014000D01*
X75085000Y-151014000D02*
X75065000Y-150997000D01*
X75065000Y-150997000D02*
X75046000Y-150979000D01*
X75046000Y-150979000D02*
X75028000Y-150960000D01*
X75028000Y-150960000D02*
X75011000Y-150940000D01*
X75011000Y-150940000D02*
X74995000Y-150919000D01*
X74995000Y-150919000D02*
X74981000Y-150897000D01*
X74981000Y-150897000D02*
X74967000Y-150875000D01*
X74967000Y-150875000D02*
X74954000Y-150852000D01*
X74954000Y-150852000D02*
X74943000Y-150828000D01*
X74943000Y-150828000D02*
X74933000Y-150804000D01*
X74933000Y-150804000D02*
X74924000Y-150780000D01*
X74924000Y-150780000D02*
X74917000Y-150754000D01*
X74917000Y-150754000D02*
X74911000Y-150729000D01*
X74911000Y-150729000D02*
X74906000Y-150703000D01*
X74906000Y-150703000D02*
X74903000Y-150677000D01*
X74903000Y-150677000D02*
X74901000Y-150651000D01*
X74901000Y-150651000D02*
X74900000Y-150625000D01*
X74900000Y-150625000D02*
X74900000Y-149875000D01*
X74900000Y-149875000D02*
X74901000Y-149849000D01*
X74901000Y-149849000D02*
X74903000Y-149823000D01*
X74903000Y-149823000D02*
X74906000Y-149797000D01*
X74906000Y-149797000D02*
X74911000Y-149771000D01*
X74911000Y-149771000D02*
X74917000Y-149746000D01*
X74917000Y-149746000D02*
X74924000Y-149720000D01*
X74924000Y-149720000D02*
X74933000Y-149696000D01*
X74933000Y-149696000D02*
X74943000Y-149672000D01*
X74943000Y-149672000D02*
X74954000Y-149648000D01*
X74954000Y-149648000D02*
X74967000Y-149625000D01*
X74967000Y-149625000D02*
X74981000Y-149603000D01*
X74981000Y-149603000D02*
X74995000Y-149581000D01*
X74995000Y-149581000D02*
X75011000Y-149560000D01*
X75011000Y-149560000D02*
X75028000Y-149540000D01*
X75028000Y-149540000D02*
X75046000Y-149521000D01*
X75046000Y-149521000D02*
X75065000Y-149503000D01*
X75065000Y-149503000D02*
X75085000Y-149486000D01*
X75085000Y-149486000D02*
X75106000Y-149470000D01*
X75106000Y-149470000D02*
X75128000Y-149456000D01*
X75128000Y-149456000D02*
X75150000Y-149442000D01*
X75150000Y-149442000D02*
X75173000Y-149429000D01*
X75173000Y-149429000D02*
X75197000Y-149418000D01*
X75197000Y-149418000D02*
X75221000Y-149408000D01*
X75221000Y-149408000D02*
X75245000Y-149399000D01*
X75245000Y-149399000D02*
X75271000Y-149392000D01*
X75271000Y-149392000D02*
X75296000Y-149386000D01*
X75296000Y-149386000D02*
X75322000Y-149381000D01*
X75322000Y-149381000D02*
X75348000Y-149378000D01*
X75348000Y-149378000D02*
X75374000Y-149376000D01*
X75374000Y-149376000D02*
X75400000Y-149375000D01*
X75400000Y-149375000D02*
X75400000Y-149375000D01*
G36*
X76800000Y-151125000D02*
G01*
X75400000Y-151125000D01*
X75374000Y-151124000D01*
X75348000Y-151122000D01*
X75322000Y-151119000D01*
X75296000Y-151114000D01*
X75271000Y-151108000D01*
X75245000Y-151101000D01*
X75221000Y-151092000D01*
X75197000Y-151082000D01*
X75173000Y-151071000D01*
X75150000Y-151058000D01*
X75106000Y-151030000D01*
X75085000Y-151014000D01*
X75065000Y-150997000D01*
X75046000Y-150979000D01*
X75028000Y-150960000D01*
X75011000Y-150940000D01*
X74995000Y-150919000D01*
X74967000Y-150875000D01*
X74954000Y-150852000D01*
X74943000Y-150828000D01*
X74933000Y-150804000D01*
X74924000Y-150780000D01*
X74917000Y-150754000D01*
X74911000Y-150729000D01*
X74906000Y-150703000D01*
X74903000Y-150677000D01*
X74901000Y-150651000D01*
X74900000Y-150625000D01*
X74900000Y-149875000D01*
X74901000Y-149849000D01*
X74903000Y-149823000D01*
X74906000Y-149797000D01*
X74911000Y-149771000D01*
X74917000Y-149746000D01*
X74924000Y-149720000D01*
X74933000Y-149696000D01*
X74943000Y-149672000D01*
X74954000Y-149648000D01*
X74967000Y-149625000D01*
X74995000Y-149581000D01*
X75011000Y-149560000D01*
X75028000Y-149540000D01*
X75046000Y-149521000D01*
X75065000Y-149503000D01*
X75085000Y-149486000D01*
X75106000Y-149470000D01*
X75150000Y-149442000D01*
X75173000Y-149429000D01*
X75197000Y-149418000D01*
X75221000Y-149408000D01*
X75245000Y-149399000D01*
X75271000Y-149392000D01*
X75296000Y-149386000D01*
X75322000Y-149381000D01*
X75348000Y-149378000D01*
X75374000Y-149376000D01*
X75400000Y-149375000D01*
X76800000Y-149375000D01*
X76800000Y-151125000D01*
G37*
X76800000Y-151125000D02*
X75400000Y-151125000D01*
X75374000Y-151124000D01*
X75348000Y-151122000D01*
X75322000Y-151119000D01*
X75296000Y-151114000D01*
X75271000Y-151108000D01*
X75245000Y-151101000D01*
X75221000Y-151092000D01*
X75197000Y-151082000D01*
X75173000Y-151071000D01*
X75150000Y-151058000D01*
X75106000Y-151030000D01*
X75085000Y-151014000D01*
X75065000Y-150997000D01*
X75046000Y-150979000D01*
X75028000Y-150960000D01*
X75011000Y-150940000D01*
X74995000Y-150919000D01*
X74967000Y-150875000D01*
X74954000Y-150852000D01*
X74943000Y-150828000D01*
X74933000Y-150804000D01*
X74924000Y-150780000D01*
X74917000Y-150754000D01*
X74911000Y-150729000D01*
X74906000Y-150703000D01*
X74903000Y-150677000D01*
X74901000Y-150651000D01*
X74900000Y-150625000D01*
X74900000Y-149875000D01*
X74901000Y-149849000D01*
X74903000Y-149823000D01*
X74906000Y-149797000D01*
X74911000Y-149771000D01*
X74917000Y-149746000D01*
X74924000Y-149720000D01*
X74933000Y-149696000D01*
X74943000Y-149672000D01*
X74954000Y-149648000D01*
X74967000Y-149625000D01*
X74995000Y-149581000D01*
X75011000Y-149560000D01*
X75028000Y-149540000D01*
X75046000Y-149521000D01*
X75065000Y-149503000D01*
X75085000Y-149486000D01*
X75106000Y-149470000D01*
X75150000Y-149442000D01*
X75173000Y-149429000D01*
X75197000Y-149418000D01*
X75221000Y-149408000D01*
X75245000Y-149399000D01*
X75271000Y-149392000D01*
X75296000Y-149386000D01*
X75322000Y-149381000D01*
X75348000Y-149378000D01*
X75374000Y-149376000D01*
X75400000Y-149375000D01*
X76800000Y-149375000D01*
X76800000Y-151125000D01*
X82600000Y-151125000D02*
X81200000Y-151125000D01*
X81200000Y-151125000D02*
X81200000Y-149375000D01*
X81200000Y-149375000D02*
X82600000Y-149375000D01*
X82600000Y-149375000D02*
X82626000Y-149376000D01*
X82626000Y-149376000D02*
X82652000Y-149378000D01*
X82652000Y-149378000D02*
X82678000Y-149381000D01*
X82678000Y-149381000D02*
X82704000Y-149386000D01*
X82704000Y-149386000D02*
X82729000Y-149392000D01*
X82729000Y-149392000D02*
X82755000Y-149399000D01*
X82755000Y-149399000D02*
X82779000Y-149408000D01*
X82779000Y-149408000D02*
X82803000Y-149418000D01*
X82803000Y-149418000D02*
X82827000Y-149429000D01*
X82827000Y-149429000D02*
X82850000Y-149442000D01*
X82850000Y-149442000D02*
X82872000Y-149456000D01*
X82872000Y-149456000D02*
X82894000Y-149470000D01*
X82894000Y-149470000D02*
X82915000Y-149486000D01*
X82915000Y-149486000D02*
X82935000Y-149503000D01*
X82935000Y-149503000D02*
X82954000Y-149521000D01*
X82954000Y-149521000D02*
X82972000Y-149540000D01*
X82972000Y-149540000D02*
X82989000Y-149560000D01*
X82989000Y-149560000D02*
X83005000Y-149581000D01*
X83005000Y-149581000D02*
X83019000Y-149603000D01*
X83019000Y-149603000D02*
X83033000Y-149625000D01*
X83033000Y-149625000D02*
X83046000Y-149648000D01*
X83046000Y-149648000D02*
X83057000Y-149672000D01*
X83057000Y-149672000D02*
X83067000Y-149696000D01*
X83067000Y-149696000D02*
X83076000Y-149720000D01*
X83076000Y-149720000D02*
X83083000Y-149746000D01*
X83083000Y-149746000D02*
X83089000Y-149771000D01*
X83089000Y-149771000D02*
X83094000Y-149797000D01*
X83094000Y-149797000D02*
X83097000Y-149823000D01*
X83097000Y-149823000D02*
X83099000Y-149849000D01*
X83099000Y-149849000D02*
X83100000Y-149875000D01*
X83100000Y-149875000D02*
X83100000Y-150625000D01*
X83100000Y-150625000D02*
X83099000Y-150651000D01*
X83099000Y-150651000D02*
X83097000Y-150677000D01*
X83097000Y-150677000D02*
X83094000Y-150703000D01*
X83094000Y-150703000D02*
X83089000Y-150729000D01*
X83089000Y-150729000D02*
X83083000Y-150754000D01*
X83083000Y-150754000D02*
X83076000Y-150780000D01*
X83076000Y-150780000D02*
X83067000Y-150804000D01*
X83067000Y-150804000D02*
X83057000Y-150828000D01*
X83057000Y-150828000D02*
X83046000Y-150852000D01*
X83046000Y-150852000D02*
X83033000Y-150875000D01*
X83033000Y-150875000D02*
X83019000Y-150897000D01*
X83019000Y-150897000D02*
X83005000Y-150919000D01*
X83005000Y-150919000D02*
X82989000Y-150940000D01*
X82989000Y-150940000D02*
X82972000Y-150960000D01*
X82972000Y-150960000D02*
X82954000Y-150979000D01*
X82954000Y-150979000D02*
X82935000Y-150997000D01*
X82935000Y-150997000D02*
X82915000Y-151014000D01*
X82915000Y-151014000D02*
X82894000Y-151030000D01*
X82894000Y-151030000D02*
X82872000Y-151044000D01*
X82872000Y-151044000D02*
X82850000Y-151058000D01*
X82850000Y-151058000D02*
X82827000Y-151071000D01*
X82827000Y-151071000D02*
X82803000Y-151082000D01*
X82803000Y-151082000D02*
X82779000Y-151092000D01*
X82779000Y-151092000D02*
X82755000Y-151101000D01*
X82755000Y-151101000D02*
X82729000Y-151108000D01*
X82729000Y-151108000D02*
X82704000Y-151114000D01*
X82704000Y-151114000D02*
X82678000Y-151119000D01*
X82678000Y-151119000D02*
X82652000Y-151122000D01*
X82652000Y-151122000D02*
X82626000Y-151124000D01*
X82626000Y-151124000D02*
X82600000Y-151125000D01*
X82600000Y-151125000D02*
X82600000Y-151125000D01*
G36*
X82626000Y-149376000D02*
G01*
X82652000Y-149378000D01*
X82678000Y-149381000D01*
X82704000Y-149386000D01*
X82729000Y-149392000D01*
X82755000Y-149399000D01*
X82779000Y-149408000D01*
X82803000Y-149418000D01*
X82827000Y-149429000D01*
X82850000Y-149442000D01*
X82894000Y-149470000D01*
X82915000Y-149486000D01*
X82935000Y-149503000D01*
X82954000Y-149521000D01*
X82972000Y-149540000D01*
X82989000Y-149560000D01*
X83005000Y-149581000D01*
X83033000Y-149625000D01*
X83046000Y-149648000D01*
X83057000Y-149672000D01*
X83067000Y-149696000D01*
X83076000Y-149720000D01*
X83083000Y-149746000D01*
X83089000Y-149771000D01*
X83094000Y-149797000D01*
X83097000Y-149823000D01*
X83099000Y-149849000D01*
X83100000Y-149875000D01*
X83100000Y-150625000D01*
X83099000Y-150651000D01*
X83097000Y-150677000D01*
X83094000Y-150703000D01*
X83089000Y-150729000D01*
X83083000Y-150754000D01*
X83076000Y-150780000D01*
X83067000Y-150804000D01*
X83057000Y-150828000D01*
X83046000Y-150852000D01*
X83033000Y-150875000D01*
X83005000Y-150919000D01*
X82989000Y-150940000D01*
X82972000Y-150960000D01*
X82954000Y-150979000D01*
X82935000Y-150997000D01*
X82915000Y-151014000D01*
X82894000Y-151030000D01*
X82850000Y-151058000D01*
X82827000Y-151071000D01*
X82803000Y-151082000D01*
X82779000Y-151092000D01*
X82755000Y-151101000D01*
X82729000Y-151108000D01*
X82704000Y-151114000D01*
X82678000Y-151119000D01*
X82652000Y-151122000D01*
X82626000Y-151124000D01*
X82600000Y-151125000D01*
X81200000Y-151125000D01*
X81200000Y-149375000D01*
X82600000Y-149375000D01*
X82626000Y-149376000D01*
G37*
X82626000Y-149376000D02*
X82652000Y-149378000D01*
X82678000Y-149381000D01*
X82704000Y-149386000D01*
X82729000Y-149392000D01*
X82755000Y-149399000D01*
X82779000Y-149408000D01*
X82803000Y-149418000D01*
X82827000Y-149429000D01*
X82850000Y-149442000D01*
X82894000Y-149470000D01*
X82915000Y-149486000D01*
X82935000Y-149503000D01*
X82954000Y-149521000D01*
X82972000Y-149540000D01*
X82989000Y-149560000D01*
X83005000Y-149581000D01*
X83033000Y-149625000D01*
X83046000Y-149648000D01*
X83057000Y-149672000D01*
X83067000Y-149696000D01*
X83076000Y-149720000D01*
X83083000Y-149746000D01*
X83089000Y-149771000D01*
X83094000Y-149797000D01*
X83097000Y-149823000D01*
X83099000Y-149849000D01*
X83100000Y-149875000D01*
X83100000Y-150625000D01*
X83099000Y-150651000D01*
X83097000Y-150677000D01*
X83094000Y-150703000D01*
X83089000Y-150729000D01*
X83083000Y-150754000D01*
X83076000Y-150780000D01*
X83067000Y-150804000D01*
X83057000Y-150828000D01*
X83046000Y-150852000D01*
X83033000Y-150875000D01*
X83005000Y-150919000D01*
X82989000Y-150940000D01*
X82972000Y-150960000D01*
X82954000Y-150979000D01*
X82935000Y-150997000D01*
X82915000Y-151014000D01*
X82894000Y-151030000D01*
X82850000Y-151058000D01*
X82827000Y-151071000D01*
X82803000Y-151082000D01*
X82779000Y-151092000D01*
X82755000Y-151101000D01*
X82729000Y-151108000D01*
X82704000Y-151114000D01*
X82678000Y-151119000D01*
X82652000Y-151122000D01*
X82626000Y-151124000D01*
X82600000Y-151125000D01*
X81200000Y-151125000D01*
X81200000Y-149375000D01*
X82600000Y-149375000D01*
X82626000Y-149376000D01*
%TD*%
D11*
%TO.C,U7*%
X88837500Y-94250000D03*
X88837500Y-94750000D03*
X88837500Y-95250000D03*
X88837500Y-95750000D03*
X88837500Y-96250000D03*
X88837500Y-96750000D03*
X88837500Y-97250000D03*
X88837500Y-97750000D03*
X88837500Y-98250000D03*
X88837500Y-98750000D03*
X88837500Y-99250000D03*
X88837500Y-99750000D03*
X88837500Y-100250000D03*
X88837500Y-100750000D03*
X88837500Y-101250000D03*
X88837500Y-101750000D03*
X88837500Y-102250000D03*
X88837500Y-102750000D03*
X88837500Y-103250000D03*
X88837500Y-103750000D03*
X88837500Y-104250000D03*
X88837500Y-104750000D03*
X88837500Y-105250000D03*
X88837500Y-105750000D03*
X88837500Y-106250000D03*
X88837500Y-106750000D03*
X88837500Y-107250000D03*
X88837500Y-107750000D03*
X88837500Y-108250000D03*
X88837500Y-108750000D03*
X88837500Y-109250000D03*
X88837500Y-109750000D03*
X88837500Y-110250000D03*
X88837500Y-110750000D03*
X88837500Y-111250000D03*
X88837500Y-111750000D03*
D12*
X90750000Y-113662500D03*
X91250000Y-113662500D03*
X91750000Y-113662500D03*
X92250000Y-113662500D03*
X92750000Y-113662500D03*
X93250000Y-113662500D03*
X93750000Y-113662500D03*
X94250000Y-113662500D03*
X94750000Y-113662500D03*
X95250000Y-113662500D03*
X95750000Y-113662500D03*
X96250000Y-113662500D03*
X96750000Y-113662500D03*
X97250000Y-113662500D03*
X97750000Y-113662500D03*
X98250000Y-113662500D03*
X98750000Y-113662500D03*
X99250000Y-113662500D03*
X99750000Y-113662500D03*
X100250000Y-113662500D03*
X100750000Y-113662500D03*
X101250000Y-113662500D03*
X101750000Y-113662500D03*
X102250000Y-113662500D03*
X102750000Y-113662500D03*
X103250000Y-113662500D03*
X103750000Y-113662500D03*
X104250000Y-113662500D03*
X104750000Y-113662500D03*
X105250000Y-113662500D03*
X105750000Y-113662500D03*
X106250000Y-113662500D03*
X106750000Y-113662500D03*
X107250000Y-113662500D03*
X107750000Y-113662500D03*
X108250000Y-113662500D03*
D11*
X110162500Y-111750000D03*
X110162500Y-111250000D03*
X110162500Y-110750000D03*
X110162500Y-110250000D03*
X110162500Y-109750000D03*
X110162500Y-109250000D03*
X110162500Y-108750000D03*
X110162500Y-108250000D03*
X110162500Y-107750000D03*
X110162500Y-107250000D03*
X110162500Y-106750000D03*
X110162500Y-106250000D03*
X110162500Y-105750000D03*
X110162500Y-105250000D03*
X110162500Y-104750000D03*
X110162500Y-104250000D03*
X110162500Y-103750000D03*
X110162500Y-103250000D03*
X110162500Y-102750000D03*
X110162500Y-102250000D03*
X110162500Y-101750000D03*
X110162500Y-101250000D03*
X110162500Y-100750000D03*
X110162500Y-100250000D03*
X110162500Y-99750000D03*
X110162500Y-99250000D03*
X110162500Y-98750000D03*
X110162500Y-98250000D03*
X110162500Y-97750000D03*
X110162500Y-97250000D03*
X110162500Y-96750000D03*
X110162500Y-96250000D03*
X110162500Y-95750000D03*
X110162500Y-95250000D03*
X110162500Y-94750000D03*
X110162500Y-94250000D03*
D12*
X108250000Y-92337500D03*
X107750000Y-92337500D03*
X107250000Y-92337500D03*
X106750000Y-92337500D03*
X106250000Y-92337500D03*
X105750000Y-92337500D03*
X105250000Y-92337500D03*
X104750000Y-92337500D03*
X104250000Y-92337500D03*
X103750000Y-92337500D03*
X103250000Y-92337500D03*
X102750000Y-92337500D03*
X102250000Y-92337500D03*
X101750000Y-92337500D03*
X101250000Y-92337500D03*
X100750000Y-92337500D03*
X100250000Y-92337500D03*
X99750000Y-92337500D03*
X99250000Y-92337500D03*
X98750000Y-92337500D03*
X98250000Y-92337500D03*
X97750000Y-92337500D03*
X97250000Y-92337500D03*
X96750000Y-92337500D03*
X96250000Y-92337500D03*
X95750000Y-92337500D03*
X95250000Y-92337500D03*
X94750000Y-92337500D03*
X94250000Y-92337500D03*
X93750000Y-92337500D03*
X93250000Y-92337500D03*
X92750000Y-92337500D03*
X92250000Y-92337500D03*
X91750000Y-92337500D03*
X91250000Y-92337500D03*
X90750000Y-92337500D03*
%TD*%
D13*
%TO.C,R55*%
X110000000Y-147010000D03*
X110000000Y-145990000D03*
%TD*%
%TO.C,R54*%
X120000000Y-147010000D03*
X120000000Y-145990000D03*
%TD*%
%TO.C,R53*%
X130000000Y-147260000D03*
X130000000Y-146240000D03*
%TD*%
D14*
%TO.C,R52*%
X111250000Y-145990000D03*
X111250000Y-147010000D03*
%TD*%
%TO.C,R51*%
X121250000Y-145990000D03*
X121250000Y-147010000D03*
%TD*%
%TO.C,R50*%
X131250000Y-146240000D03*
X131250000Y-147260000D03*
%TD*%
D13*
%TO.C,R49*%
X118500000Y-147010000D03*
X118500000Y-145990000D03*
%TD*%
%TO.C,R48*%
X128500000Y-147260000D03*
X128500000Y-146240000D03*
%TD*%
%TO.C,R47*%
X138500000Y-146240000D03*
X138500000Y-147260000D03*
%TD*%
D15*
%TO.C,R46*%
X57510000Y-139000000D03*
X56490000Y-139000000D03*
%TD*%
%TO.C,R45*%
X56490000Y-103000000D03*
X57510000Y-103000000D03*
%TD*%
D16*
%TO.C,R44*%
X57510000Y-137750000D03*
X56490000Y-137750000D03*
%TD*%
%TO.C,R43*%
X57510000Y-101750000D03*
X56490000Y-101750000D03*
%TD*%
%TO.C,R6*%
X141760000Y-86000000D03*
X140740000Y-86000000D03*
%TD*%
D17*
%TO.C,Q5*%
X114937500Y-146500000D03*
X113062500Y-147450000D03*
X113062500Y-145550000D03*
%TD*%
%TO.C,Q4*%
X124937500Y-146500000D03*
X123062500Y-147450000D03*
X123062500Y-145550000D03*
%TD*%
%TO.C,Q3*%
X134937500Y-146750000D03*
X133062500Y-147700000D03*
X133062500Y-145800000D03*
%TD*%
D18*
%TO.C,J27*%
X103320000Y-119735000D03*
X103320000Y-122275000D03*
X100780000Y-119735000D03*
X100780000Y-122275000D03*
X98240000Y-119735000D03*
X98240000Y-122275000D03*
X95700000Y-119735000D03*
D19*
X95700000Y-122275000D03*
%TD*%
D18*
%TO.C,J26*%
X123765000Y-106820000D03*
X121225000Y-106820000D03*
X123765000Y-104280000D03*
X121225000Y-104280000D03*
X123765000Y-101740000D03*
X121225000Y-101740000D03*
X123765000Y-99200000D03*
D19*
X121225000Y-99200000D03*
%TD*%
D18*
%TO.C,J25*%
X77765000Y-106820000D03*
X75225000Y-106820000D03*
X77765000Y-104280000D03*
X75225000Y-104280000D03*
X77765000Y-101740000D03*
X75225000Y-101740000D03*
X77765000Y-99200000D03*
D19*
X75225000Y-99200000D03*
%TD*%
D18*
%TO.C,J24*%
X53500000Y-141555000D03*
X53500000Y-139015000D03*
D19*
X53500000Y-136475000D03*
%TD*%
%TO.C,J23*%
X53500000Y-100460000D03*
D18*
X53500000Y-103000000D03*
X53500000Y-105540000D03*
%TD*%
D20*
%TO.C,D11*%
X117000000Y-145712500D03*
X117000000Y-147287500D03*
%TD*%
%TO.C,D10*%
X127000000Y-145712500D03*
X127000000Y-147287500D03*
%TD*%
%TO.C,D9*%
X137000000Y-145962500D03*
X137000000Y-147537500D03*
%TD*%
D21*
%TO.C,D8*%
X57787500Y-140500000D03*
X56212500Y-140500000D03*
%TD*%
%TO.C,D7*%
X57787500Y-104500000D03*
X56212500Y-104500000D03*
%TD*%
D22*
%TO.C,C8*%
X109500000Y-128120000D03*
X109500000Y-129080000D03*
%TD*%
D23*
%TO.C,C9*%
X135040000Y-86020000D03*
X136000000Y-86020000D03*
%TD*%
D24*
%TO.C,C10*%
X134450000Y-87520000D03*
X136000000Y-87520000D03*
%TD*%
D25*
%TO.C,C11*%
X130600000Y-92520000D03*
X136000000Y-92520000D03*
%TD*%
D26*
%TO.C,C12*%
X132200000Y-110500000D03*
X126800000Y-110500000D03*
%TD*%
D27*
%TO.C,C13*%
X130275000Y-115000000D03*
X128725000Y-115000000D03*
%TD*%
D28*
%TO.C,C14*%
X129980000Y-116500000D03*
X129020000Y-116500000D03*
%TD*%
%TO.C,C15*%
X66980000Y-102770000D03*
X66020000Y-102770000D03*
%TD*%
D29*
%TO.C,C7*%
X108750000Y-121975000D03*
X108750000Y-119025000D03*
%TD*%
D30*
%TO.C,C20*%
X150250000Y-94775000D03*
X150250000Y-93225000D03*
%TD*%
D28*
%TO.C,C21*%
X82980000Y-102250000D03*
X82020000Y-102250000D03*
%TD*%
D31*
%TO.C,C49*%
X83500000Y-95225000D03*
X83500000Y-96775000D03*
%TD*%
D22*
%TO.C,C50*%
X86000000Y-95520000D03*
X86000000Y-96480000D03*
%TD*%
D32*
%TO.C,D1*%
X126500000Y-94062500D03*
X126500000Y-95937500D03*
%TD*%
D33*
%TO.C,D4*%
X139062500Y-95750000D03*
X140937500Y-95750000D03*
%TD*%
D34*
%TO.C,D6*%
X91050000Y-121800000D03*
X91950000Y-121800000D03*
X91950000Y-120200000D03*
X91050000Y-120200000D03*
%TD*%
D18*
%TO.C,J10*%
X139460000Y-150500000D03*
D19*
X142000000Y-150500000D03*
%TD*%
D18*
%TO.C,J12*%
X149500000Y-116830000D03*
X149500000Y-114290000D03*
D19*
X149500000Y-111750000D03*
%TD*%
D18*
%TO.C,J13*%
X106750000Y-76410000D03*
X106750000Y-73870000D03*
X106750000Y-71330000D03*
X106750000Y-68790000D03*
D19*
X106750000Y-66250000D03*
%TD*%
D35*
%TO.C,J14*%
X56600000Y-124275000D03*
X56600000Y-116275000D03*
D36*
X67200000Y-123475000D03*
X67200000Y-122375000D03*
X67200000Y-121275000D03*
X67200000Y-120175000D03*
X67200000Y-119075000D03*
X67200000Y-117975000D03*
X67200000Y-116875000D03*
X67200000Y-115775000D03*
X67200000Y-114675000D03*
D37*
X66600000Y-113225000D03*
X66600000Y-128075000D03*
D38*
X57000000Y-113475000D03*
X57000000Y-128975000D03*
%TD*%
D39*
%TO.C,J15*%
X53145000Y-72355000D03*
X53145000Y-75125000D03*
X53145000Y-77895000D03*
X53145000Y-80665000D03*
X55985000Y-70970000D03*
X55985000Y-73740000D03*
X55985000Y-76510000D03*
X55985000Y-79280000D03*
D40*
X55985000Y-82050000D03*
D41*
X55685000Y-89010000D03*
X55685000Y-64010000D03*
%TD*%
D18*
%TO.C,J16*%
X81570000Y-57000000D03*
X81570000Y-54460000D03*
X79030000Y-57000000D03*
X79030000Y-54460000D03*
X76490000Y-57000000D03*
X76490000Y-54460000D03*
X73950000Y-57000000D03*
X73950000Y-54460000D03*
X71410000Y-57000000D03*
X71410000Y-54460000D03*
X68870000Y-57000000D03*
X68870000Y-54460000D03*
X66330000Y-57000000D03*
X66330000Y-54460000D03*
X63790000Y-57000000D03*
X63790000Y-54460000D03*
X61250000Y-57000000D03*
D19*
X61250000Y-54460000D03*
%TD*%
D18*
%TO.C,J17*%
X141770000Y-54460000D03*
X139230000Y-54460000D03*
X136690000Y-54460000D03*
X134150000Y-54460000D03*
X131610000Y-54460000D03*
X129070000Y-54460000D03*
X126530000Y-54460000D03*
X123990000Y-54460000D03*
X121450000Y-54460000D03*
X118910000Y-54460000D03*
X116370000Y-54460000D03*
X113830000Y-54460000D03*
X111290000Y-54460000D03*
D19*
X108750000Y-54460000D03*
%TD*%
D42*
%TO.C,J18*%
X139500000Y-141950000D03*
D43*
X138025000Y-143500000D03*
X140975000Y-143500000D03*
%TD*%
D42*
%TO.C,J19*%
X108500000Y-144050000D03*
D43*
X109975000Y-142500000D03*
X107025000Y-142500000D03*
%TD*%
D44*
%TO.C,J20*%
X98175000Y-138200000D03*
X95635000Y-138200000D03*
X93095000Y-138200000D03*
X96905000Y-138200000D03*
X94365000Y-138200000D03*
X91825000Y-138200000D03*
D45*
X88850000Y-142300000D03*
X88850000Y-151100000D03*
X101150000Y-151100000D03*
X101150000Y-142300000D03*
%TD*%
D42*
%TO.C,J21*%
X139500000Y-120050000D03*
D43*
X140975000Y-118500000D03*
X138025000Y-118500000D03*
%TD*%
D46*
%TO.C,J22*%
X62750000Y-139845000D03*
X69250000Y-138745000D03*
X62750000Y-146845000D03*
X62750000Y-143845000D03*
D47*
X66000000Y-141445000D03*
X66000000Y-148445000D03*
%TD*%
D13*
%TO.C,R4*%
X128250000Y-90530000D03*
X128250000Y-89510000D03*
%TD*%
D48*
%TO.C,R5*%
X140075000Y-110750000D03*
X138425000Y-110750000D03*
%TD*%
D16*
%TO.C,R3*%
X118010000Y-96750000D03*
X116990000Y-96750000D03*
%TD*%
D48*
%TO.C,R7*%
X143575000Y-110750000D03*
X141925000Y-110750000D03*
%TD*%
D19*
%TO.C,J11*%
X83250000Y-66250000D03*
D18*
X83250000Y-68790000D03*
X83250000Y-71330000D03*
X83250000Y-73870000D03*
X83250000Y-76410000D03*
%TD*%
D49*
%TO.C,JP5*%
X62750000Y-64000000D03*
D50*
X61300000Y-64000000D03*
%TD*%
D14*
%TO.C,R22*%
X63000000Y-61010000D03*
X63000000Y-59990000D03*
%TD*%
D16*
%TO.C,R30*%
X100490000Y-134000000D03*
X101510000Y-134000000D03*
%TD*%
D19*
%TO.C,J3*%
X135500000Y-150500000D03*
D18*
X132960000Y-150500000D03*
X130420000Y-150500000D03*
X127880000Y-150500000D03*
%TD*%
D51*
%TO.C,C30*%
X99500000Y-133040000D03*
X99500000Y-134000000D03*
%TD*%
D28*
%TO.C,C28*%
X61545000Y-95500000D03*
X62505000Y-95500000D03*
%TD*%
%TO.C,C39*%
X97020000Y-89500000D03*
X97980000Y-89500000D03*
%TD*%
D52*
%TO.C,F1*%
X139500000Y-81100000D03*
X139500000Y-83900000D03*
%TD*%
D19*
%TO.C,J1*%
X149475000Y-141375000D03*
D18*
X149475000Y-138835000D03*
X149475000Y-136295000D03*
X149475000Y-133755000D03*
X149475000Y-131215000D03*
X149475000Y-128675000D03*
X149475000Y-126135000D03*
X149475000Y-123595000D03*
%TD*%
D53*
%TO.C,D3*%
X140787500Y-93750000D03*
X139212500Y-93750000D03*
%TD*%
D54*
%TO.C,U4*%
X123637500Y-93450000D03*
X123637500Y-92500000D03*
X123637500Y-91550000D03*
X121362500Y-91550000D03*
X121362500Y-92500000D03*
X121362500Y-93450000D03*
%TD*%
D55*
%TO.C,U5*%
X87000000Y-61800000D03*
X87000000Y-63800000D03*
X87000000Y-65800000D03*
X87000000Y-67800000D03*
X87000000Y-69800000D03*
X87000000Y-71800000D03*
X87000000Y-73800000D03*
X87000000Y-75800000D03*
X103000000Y-75800000D03*
X103000000Y-73800000D03*
X103000000Y-71800000D03*
X103000000Y-69800000D03*
X103000000Y-67800000D03*
X103000000Y-65800000D03*
X103000000Y-63800000D03*
X103000000Y-61800000D03*
D56*
X95000000Y-66500000D03*
%TD*%
D51*
%TO.C,C44*%
X86000000Y-108520000D03*
X86000000Y-109480000D03*
%TD*%
D19*
%TO.C,J4*%
X123775000Y-150500000D03*
D18*
X121235000Y-150500000D03*
%TD*%
D57*
%TO.C,L1*%
X106375000Y-146000000D03*
X108500000Y-146000000D03*
%TD*%
D15*
%TO.C,R15*%
X86010000Y-106000000D03*
X84990000Y-106000000D03*
%TD*%
D13*
%TO.C,R41*%
X91500000Y-117990000D03*
X91500000Y-119010000D03*
%TD*%
D30*
%TO.C,C6*%
X135500000Y-74000000D03*
X135500000Y-75550000D03*
%TD*%
D13*
%TO.C,R16*%
X150250000Y-96740000D03*
X150250000Y-97760000D03*
%TD*%
D51*
%TO.C,C37*%
X110000000Y-114520000D03*
X110000000Y-115480000D03*
%TD*%
D28*
%TO.C,C16*%
X107520000Y-115500000D03*
X108480000Y-115500000D03*
%TD*%
D14*
%TO.C,R21*%
X64750000Y-61010000D03*
X64750000Y-59990000D03*
%TD*%
D16*
%TO.C,R27*%
X61515000Y-86500000D03*
X62535000Y-86500000D03*
%TD*%
D23*
%TO.C,C56*%
X66480000Y-137000000D03*
X65520000Y-137000000D03*
%TD*%
D51*
%TO.C,C29*%
X99500000Y-131040000D03*
X99500000Y-132000000D03*
%TD*%
D16*
%TO.C,R8*%
X62990000Y-102770000D03*
X64010000Y-102770000D03*
%TD*%
D13*
%TO.C,R40*%
X90000000Y-117990000D03*
X90000000Y-119010000D03*
%TD*%
D28*
%TO.C,C33*%
X69520000Y-133500000D03*
X70480000Y-133500000D03*
%TD*%
D19*
%TO.C,J5*%
X117275000Y-150500000D03*
D18*
X114735000Y-150500000D03*
%TD*%
D28*
%TO.C,C36*%
X69520000Y-136000000D03*
X70480000Y-136000000D03*
%TD*%
D23*
%TO.C,C58*%
X97980000Y-90500000D03*
X97020000Y-90500000D03*
%TD*%
D17*
%TO.C,Q1*%
X139500000Y-87550000D03*
X139500000Y-89450000D03*
X141375000Y-88500000D03*
%TD*%
D23*
%TO.C,C42*%
X98480000Y-116500000D03*
X97520000Y-116500000D03*
%TD*%
D51*
%TO.C,C4*%
X137000000Y-74000000D03*
X137000000Y-74960000D03*
%TD*%
%TO.C,C54*%
X87000000Y-112520000D03*
X87000000Y-113480000D03*
%TD*%
D16*
%TO.C,R29*%
X100490000Y-136000000D03*
X101510000Y-136000000D03*
%TD*%
D13*
%TO.C,R33*%
X58525000Y-92990000D03*
X58525000Y-94010000D03*
%TD*%
D58*
%TO.C,S1*%
X61850000Y-101150000D03*
X68150000Y-101150000D03*
X61850000Y-97350000D03*
X68150000Y-97350000D03*
%TD*%
%TO.C,S2*%
X61850000Y-108650000D03*
X68150000Y-108650000D03*
X61850000Y-104850000D03*
X68150000Y-104850000D03*
%TD*%
D23*
%TO.C,C46*%
X62480000Y-136000000D03*
X61520000Y-136000000D03*
%TD*%
%TO.C,C47*%
X62480000Y-133500000D03*
X61520000Y-133500000D03*
%TD*%
D22*
%TO.C,C38*%
X87000000Y-102480000D03*
X87000000Y-101520000D03*
%TD*%
D23*
%TO.C,C27*%
X74480000Y-94500000D03*
X73520000Y-94500000D03*
%TD*%
D30*
%TO.C,C5*%
X134000000Y-74000000D03*
X134000000Y-75550000D03*
%TD*%
D22*
%TO.C,C17*%
X112000000Y-94980000D03*
X112000000Y-94020000D03*
%TD*%
D51*
%TO.C,C60*%
X89500000Y-90020000D03*
X89500000Y-90980000D03*
%TD*%
D59*
%TO.C,U2*%
X137020000Y-100600000D03*
X137020000Y-102300000D03*
X137020000Y-104000000D03*
D60*
X146170000Y-104000000D03*
D59*
X137020000Y-105700000D03*
X137020000Y-107400000D03*
%TD*%
D16*
%TO.C,R26*%
X106990000Y-147500000D03*
X108010000Y-147500000D03*
%TD*%
D51*
%TO.C,C23*%
X72500000Y-90520000D03*
X72500000Y-91480000D03*
%TD*%
D31*
%TO.C,C3*%
X134000000Y-80500000D03*
X134000000Y-78950000D03*
%TD*%
D22*
%TO.C,C51*%
X87000000Y-96480000D03*
X87000000Y-95520000D03*
%TD*%
D23*
%TO.C,C63*%
X111980000Y-92500000D03*
X111020000Y-92500000D03*
%TD*%
D49*
%TO.C,JP3*%
X62750000Y-76000000D03*
D50*
X61300000Y-76000000D03*
%TD*%
D15*
%TO.C,R10*%
X144910000Y-66550000D03*
X143890000Y-66550000D03*
%TD*%
D61*
%TO.C,U3*%
X132000000Y-119000000D03*
X131000000Y-119000000D03*
X130000000Y-119000000D03*
X129000000Y-119000000D03*
X128000000Y-119000000D03*
X127000000Y-119000000D03*
X126000000Y-119000000D03*
X125000000Y-119000000D03*
X124000000Y-119000000D03*
X123000000Y-119000000D03*
X122000000Y-119000000D03*
X121000000Y-119000000D03*
X120000000Y-119000000D03*
X119000000Y-119000000D03*
X118000000Y-119000000D03*
X117000000Y-119000000D03*
X116000000Y-119000000D03*
D62*
X112000000Y-123000000D03*
X112000000Y-124000000D03*
X112000000Y-125000000D03*
X112000000Y-126000000D03*
X112000000Y-127000000D03*
X112000000Y-128000000D03*
X112000000Y-129000000D03*
X112000000Y-130000000D03*
X112000000Y-131000000D03*
X112000000Y-132000000D03*
X112000000Y-133000000D03*
X112000000Y-134000000D03*
X112000000Y-135000000D03*
X112000000Y-136000000D03*
X112000000Y-137000000D03*
X112000000Y-138000000D03*
X112000000Y-139000000D03*
D61*
X116000000Y-143000000D03*
X117000000Y-143000000D03*
X118000000Y-143000000D03*
X119000000Y-143000000D03*
X120000000Y-143000000D03*
X121000000Y-143000000D03*
X122000000Y-143000000D03*
X123000000Y-143000000D03*
X124000000Y-143000000D03*
X125000000Y-143000000D03*
X126000000Y-143000000D03*
X127000000Y-143000000D03*
X128000000Y-143000000D03*
X129000000Y-143000000D03*
X130000000Y-143000000D03*
X131000000Y-143000000D03*
X132000000Y-143000000D03*
D62*
X136000000Y-139000000D03*
X136000000Y-138000000D03*
X136000000Y-137000000D03*
X136000000Y-136000000D03*
X136000000Y-135000000D03*
X136000000Y-134000000D03*
X136000000Y-133000000D03*
X136000000Y-132000000D03*
X136000000Y-131000000D03*
X136000000Y-130000000D03*
X136000000Y-129000000D03*
X136000000Y-128000000D03*
X136000000Y-127000000D03*
X136000000Y-126000000D03*
X136000000Y-125000000D03*
X136000000Y-124000000D03*
X136000000Y-123000000D03*
%TD*%
D20*
%TO.C,D5*%
X88250000Y-121787500D03*
X88250000Y-120212500D03*
%TD*%
D23*
%TO.C,C22*%
X82980000Y-107750000D03*
X82020000Y-107750000D03*
%TD*%
D63*
%TO.C,D2*%
X126500000Y-89082500D03*
X126500000Y-90957500D03*
%TD*%
D23*
%TO.C,C48*%
X62480000Y-134500000D03*
X61520000Y-134500000D03*
%TD*%
D22*
%TO.C,C1*%
X137000000Y-80500000D03*
X137000000Y-79540000D03*
%TD*%
D16*
%TO.C,R14*%
X139490000Y-97500000D03*
X140510000Y-97500000D03*
%TD*%
D19*
%TO.C,J9*%
X147500000Y-70350000D03*
D18*
X150040000Y-70350000D03*
X147500000Y-67810000D03*
X150040000Y-67810000D03*
X147500000Y-65270000D03*
X150040000Y-65270000D03*
X147500000Y-62730000D03*
X150040000Y-62730000D03*
X147500000Y-60190000D03*
X150040000Y-60190000D03*
%TD*%
D51*
%TO.C,C24*%
X71500000Y-90520000D03*
X71500000Y-91480000D03*
%TD*%
D64*
%TO.C,U9*%
X76000000Y-91000000D03*
D65*
X77950000Y-92250000D03*
X77950000Y-91750000D03*
X77950000Y-91250000D03*
X77950000Y-90750000D03*
X77950000Y-90250000D03*
X77950000Y-89750000D03*
D66*
X77250000Y-89050000D03*
X76750000Y-89050000D03*
X76250000Y-89050000D03*
X75750000Y-89050000D03*
X75250000Y-89050000D03*
X74750000Y-89050000D03*
D65*
X74050000Y-89750000D03*
X74050000Y-90250000D03*
X74050000Y-90750000D03*
X74050000Y-91250000D03*
X74050000Y-91750000D03*
X74050000Y-92250000D03*
D66*
X74750000Y-92950000D03*
X75250000Y-92950000D03*
X75750000Y-92950000D03*
X76250000Y-92950000D03*
X76750000Y-92950000D03*
X77250000Y-92950000D03*
%TD*%
D15*
%TO.C,R2*%
X118010000Y-97750000D03*
X116990000Y-97750000D03*
%TD*%
D67*
%TO.C,FB1*%
X84562500Y-113000000D03*
X82437500Y-113000000D03*
%TD*%
D23*
%TO.C,C19*%
X85980000Y-110500000D03*
X85020000Y-110500000D03*
%TD*%
D14*
%TO.C,R37*%
X122000000Y-116510000D03*
X122000000Y-115490000D03*
%TD*%
D22*
%TO.C,C64*%
X113000000Y-101480000D03*
X113000000Y-100520000D03*
%TD*%
D68*
%TO.C,J8*%
X146550000Y-82550000D03*
X146550000Y-81900000D03*
X146550000Y-81250000D03*
X146550000Y-80600000D03*
X146550000Y-79950000D03*
D69*
X146550000Y-83750000D03*
X146550000Y-78750000D03*
D70*
X149250000Y-84750000D03*
D71*
X149250000Y-82250000D03*
X149250000Y-80250000D03*
D70*
X149250000Y-77750000D03*
%TD*%
D51*
%TO.C,C31*%
X99500000Y-135040000D03*
X99500000Y-136000000D03*
%TD*%
D72*
%TO.C,H1*%
X147174175Y-148174175D03*
X148500000Y-147625000D03*
X150375000Y-149500000D03*
X147174175Y-150825825D03*
X149825825Y-150825825D03*
D73*
X148500000Y-149500000D03*
D72*
X148500000Y-151375000D03*
X149825825Y-148174175D03*
X146625000Y-149500000D03*
%TD*%
D49*
%TO.C,JP6*%
X62750000Y-72000000D03*
D50*
X61300000Y-72000000D03*
%TD*%
D51*
%TO.C,C53*%
X86000000Y-112520000D03*
X86000000Y-113480000D03*
%TD*%
D23*
%TO.C,C61*%
X102980000Y-90500000D03*
X102020000Y-90500000D03*
%TD*%
D14*
%TO.C,R38*%
X118000000Y-115490000D03*
X118000000Y-116510000D03*
%TD*%
D49*
%TO.C,JP4*%
X62750000Y-68000000D03*
D50*
X61300000Y-68000000D03*
%TD*%
D13*
%TO.C,R42*%
X93000000Y-117990000D03*
X93000000Y-119010000D03*
%TD*%
D15*
%TO.C,R19*%
X93510000Y-79500000D03*
X92490000Y-79500000D03*
%TD*%
D19*
%TO.C,J6*%
X110500000Y-150500000D03*
D18*
X107960000Y-150500000D03*
%TD*%
D74*
%TO.C,Q2*%
X70550000Y-107687500D03*
X72450000Y-107687500D03*
X71500000Y-105812500D03*
%TD*%
D72*
%TO.C,H3*%
X54500000Y-151375000D03*
X52625000Y-149500000D03*
X54500000Y-147625000D03*
X56375000Y-149500000D03*
X53174175Y-148174175D03*
X55825825Y-150825825D03*
X53174175Y-150825825D03*
X55825825Y-148174175D03*
D73*
X54500000Y-149500000D03*
%TD*%
D75*
%TO.C,U8*%
X98600000Y-84905000D03*
X98600000Y-83635000D03*
X98600000Y-82365000D03*
X98600000Y-81095000D03*
X91400000Y-81095000D03*
X91400000Y-82365000D03*
X91400000Y-83635000D03*
X91400000Y-84905000D03*
%TD*%
D23*
%TO.C,C26*%
X75980000Y-87500000D03*
X75020000Y-87500000D03*
%TD*%
D28*
%TO.C,C32*%
X100520000Y-131000000D03*
X101480000Y-131000000D03*
%TD*%
D76*
%TO.C,U6*%
X148212000Y-97155000D03*
X148212000Y-95885000D03*
X148212000Y-94615000D03*
X148212000Y-93345000D03*
X142788000Y-93345000D03*
X142788000Y-94615000D03*
X142788000Y-95885000D03*
X142788000Y-97155000D03*
D77*
X145500000Y-95250000D03*
%TD*%
D13*
%TO.C,R24*%
X118000000Y-112990000D03*
X118000000Y-114010000D03*
%TD*%
D78*
%TO.C,U1*%
X127200000Y-80500000D03*
X129500000Y-80500000D03*
D79*
X129500000Y-74200000D03*
D78*
X131800000Y-80500000D03*
%TD*%
D23*
%TO.C,C18*%
X85980000Y-111500000D03*
X85020000Y-111500000D03*
%TD*%
D16*
%TO.C,R13*%
X139490000Y-92250000D03*
X140510000Y-92250000D03*
%TD*%
D28*
%TO.C,C35*%
X69520000Y-137000000D03*
X70480000Y-137000000D03*
%TD*%
D16*
%TO.C,R34*%
X100490000Y-132000000D03*
X101510000Y-132000000D03*
%TD*%
D22*
%TO.C,C52*%
X85000000Y-96480000D03*
X85000000Y-95520000D03*
%TD*%
D14*
%TO.C,R36*%
X124000000Y-116510000D03*
X124000000Y-115490000D03*
%TD*%
D80*
%TO.C,U10*%
X60120000Y-93470000D03*
X61390000Y-93470000D03*
X62660000Y-93470000D03*
X63930000Y-93470000D03*
X63930000Y-88530000D03*
X62660000Y-88530000D03*
X61390000Y-88530000D03*
X60120000Y-88530000D03*
%TD*%
D13*
%TO.C,R35*%
X123000000Y-112990000D03*
X123000000Y-114010000D03*
%TD*%
D72*
%TO.C,H4*%
X54500000Y-53625000D03*
X53174175Y-54174175D03*
X53174175Y-56825825D03*
X56375000Y-55500000D03*
D73*
X54500000Y-55500000D03*
D72*
X55825825Y-56825825D03*
X52625000Y-55500000D03*
X54500000Y-57375000D03*
X55825825Y-54174175D03*
%TD*%
D15*
%TO.C,R12*%
X72060000Y-109250000D03*
X71040000Y-109250000D03*
%TD*%
D28*
%TO.C,C65*%
X91020000Y-123000000D03*
X91980000Y-123000000D03*
%TD*%
D13*
%TO.C,R28*%
X121000000Y-112990000D03*
X121000000Y-114010000D03*
%TD*%
D81*
%TO.C,U11*%
X94935000Y-135650000D03*
X94935000Y-135000000D03*
X94935000Y-134350000D03*
X93065000Y-134350000D03*
X93065000Y-135000000D03*
X93065000Y-135650000D03*
%TD*%
D13*
%TO.C,R39*%
X88250000Y-117990000D03*
X88250000Y-119010000D03*
%TD*%
D16*
%TO.C,R17*%
X75490000Y-94500000D03*
X76510000Y-94500000D03*
%TD*%
D13*
%TO.C,R25*%
X122000000Y-112990000D03*
X122000000Y-114010000D03*
%TD*%
D49*
%TO.C,JP1*%
X62750000Y-80000000D03*
D50*
X61300000Y-80000000D03*
%TD*%
D23*
%TO.C,C41*%
X98480000Y-115500000D03*
X97520000Y-115500000D03*
%TD*%
D15*
%TO.C,R18*%
X78510000Y-94500000D03*
X77490000Y-94500000D03*
%TD*%
D13*
%TO.C,R32*%
X120000000Y-112990000D03*
X120000000Y-114010000D03*
%TD*%
D23*
%TO.C,C43*%
X91980000Y-115500000D03*
X91020000Y-115500000D03*
%TD*%
D22*
%TO.C,C62*%
X112000000Y-101480000D03*
X112000000Y-100520000D03*
%TD*%
D31*
%TO.C,C2*%
X135500000Y-80500000D03*
X135500000Y-78950000D03*
%TD*%
D16*
%TO.C,R11*%
X71040000Y-110250000D03*
X72060000Y-110250000D03*
%TD*%
D23*
%TO.C,C55*%
X66480000Y-136000000D03*
X65520000Y-136000000D03*
%TD*%
D82*
%TO.C,J7*%
X77700000Y-147550000D03*
X78350000Y-147550000D03*
X79000000Y-147550000D03*
X79650000Y-147550000D03*
X80300000Y-147550000D03*
D83*
X76500000Y-147550000D03*
X81500000Y-147550000D03*
D84*
X75500000Y-150250000D03*
D85*
X78000000Y-150250000D03*
X80000000Y-150250000D03*
D84*
X82500000Y-150250000D03*
%TD*%
D86*
%TO.C,J2*%
X145750000Y-88500000D03*
D87*
X148250000Y-88500000D03*
%TD*%
D22*
%TO.C,C57*%
X112000000Y-107055000D03*
X112000000Y-106095000D03*
%TD*%
D14*
%TO.C,R1*%
X128250000Y-95530000D03*
X128250000Y-94510000D03*
%TD*%
D28*
%TO.C,C59*%
X102520000Y-115500000D03*
X103480000Y-115500000D03*
%TD*%
D88*
%TO.C,Y1*%
X81650000Y-103900000D03*
X81650000Y-106100000D03*
X83350000Y-106100000D03*
X83350000Y-103900000D03*
%TD*%
D72*
%TO.C,H2*%
X150375000Y-55500000D03*
X148500000Y-53625000D03*
X149825825Y-56825825D03*
D73*
X148500000Y-55500000D03*
D72*
X149825825Y-54174175D03*
X148500000Y-57375000D03*
X146625000Y-55500000D03*
X147174175Y-56825825D03*
X147174175Y-54174175D03*
%TD*%
D23*
%TO.C,C45*%
X62480000Y-137000000D03*
X61520000Y-137000000D03*
%TD*%
D51*
%TO.C,C40*%
X87000000Y-108520000D03*
X87000000Y-109480000D03*
%TD*%
D15*
%TO.C,R20*%
X97510000Y-79500000D03*
X96490000Y-79500000D03*
%TD*%
D49*
%TO.C,JP2*%
X62750000Y-84000000D03*
D50*
X61300000Y-84000000D03*
%TD*%
D13*
%TO.C,R31*%
X124000000Y-112990000D03*
X124000000Y-114010000D03*
%TD*%
D15*
%TO.C,R9*%
X144910000Y-69050000D03*
X143890000Y-69050000D03*
%TD*%
D28*
%TO.C,C34*%
X69520000Y-134500000D03*
X70480000Y-134500000D03*
%TD*%
D13*
%TO.C,R23*%
X119000000Y-112990000D03*
X119000000Y-114010000D03*
%TD*%
D22*
%TO.C,C25*%
X89000000Y-82230000D03*
X89000000Y-81270000D03*
%TD*%
M02*
