%TF.GenerationSoftware,KiCad,Pcbnew,(6.0.0)*%
%TF.CreationDate,2022-01-12T18:34:34+03:00*%
%TF.ProjectId,UnderControl_V6,556e6465-7243-46f6-9e74-726f6c5f5636,1.6*%
%TF.SameCoordinates,Original*%
%TF.FileFunction,Copper,L4,Bot*%
%TF.FilePolarity,Positive*%
%FSLAX46Y46*%
G04 Gerber Fmt 4.6, Leading zero omitted, Abs format (unit mm)*
G04 Created by KiCad (PCBNEW (6.0.0)) date 2022-01-12 18:34:34*
%MOMM*%
%LPD*%
G01*
G04 APERTURE LIST*
%TA.AperFunction,ComponentPad*%
%ADD10O,1.700000X1.700000*%
%TD*%
%TA.AperFunction,ComponentPad*%
%ADD11R,1.700000X1.700000*%
%TD*%
%TA.AperFunction,ComponentPad*%
%ADD12C,1.600000*%
%TD*%
%TA.AperFunction,ComponentPad*%
%ADD13R,1.600000X1.600000*%
%TD*%
%TA.AperFunction,ComponentPad*%
%ADD14C,4.000000*%
%TD*%
%TA.AperFunction,ComponentPad*%
%ADD15O,0.650000X1.300000*%
%TD*%
%TA.AperFunction,ComponentPad*%
%ADD16O,1.550000X0.775000*%
%TD*%
%TA.AperFunction,ComponentPad*%
%ADD17C,0.800000*%
%TD*%
%TA.AperFunction,ComponentPad*%
%ADD18C,5.000000*%
%TD*%
%TA.AperFunction,ComponentPad*%
%ADD19O,1.300000X0.650000*%
%TD*%
%TA.AperFunction,ComponentPad*%
%ADD20O,0.775000X1.550000*%
%TD*%
%TA.AperFunction,ComponentPad*%
%ADD21R,1.508000X1.508000*%
%TD*%
%TA.AperFunction,ComponentPad*%
%ADD22C,1.508000*%
%TD*%
%TA.AperFunction,ViaPad*%
%ADD23C,0.600000*%
%TD*%
%TA.AperFunction,ViaPad*%
%ADD24C,0.800000*%
%TD*%
%TA.AperFunction,ViaPad*%
%ADD25C,1.000000*%
%TD*%
%TA.AperFunction,Conductor*%
%ADD26C,0.293370*%
%TD*%
%TA.AperFunction,Conductor*%
%ADD27C,0.500000*%
%TD*%
%TA.AperFunction,Conductor*%
%ADD28C,0.300000*%
%TD*%
%TA.AperFunction,Conductor*%
%ADD29C,1.000000*%
%TD*%
%TA.AperFunction,Conductor*%
%ADD30C,0.261110*%
%TD*%
G04 APERTURE END LIST*
D10*
%TO.P,J27,8,Pin_8*%
%TO.N,GND*%
X103320000Y-119735000D03*
%TO.P,J27,7,Pin_7*%
%TO.N,+5V*%
X103320000Y-122275000D03*
%TO.P,J27,6,Pin_6*%
%TO.N,PE11*%
X100780000Y-119735000D03*
%TO.P,J27,5,Pin_5*%
%TO.N,+3V3*%
X100780000Y-122275000D03*
%TO.P,J27,4,Pin_4*%
%TO.N,PE7*%
X98240000Y-119735000D03*
%TO.P,J27,3,Pin_3*%
%TO.N,PE8*%
X98240000Y-122275000D03*
%TO.P,J27,2,Pin_2*%
%TO.N,PG0*%
X95700000Y-119735000D03*
D11*
%TO.P,J27,1,Pin_1*%
%TO.N,PG1*%
X95700000Y-122275000D03*
%TD*%
D10*
%TO.P,J26,8,Pin_8*%
%TO.N,+5V*%
X123765000Y-106820000D03*
%TO.P,J26,7,Pin_7*%
%TO.N,GND*%
X121225000Y-106820000D03*
%TO.P,J26,6,Pin_6*%
%TO.N,+3V3*%
X123765000Y-104280000D03*
%TO.P,J26,5,Pin_5*%
%TO.N,PG2*%
X121225000Y-104280000D03*
%TO.P,J26,4,Pin_4*%
%TO.N,PG3*%
X123765000Y-101740000D03*
%TO.P,J26,3,Pin_3*%
%TO.N,PG4*%
X121225000Y-101740000D03*
%TO.P,J26,2,Pin_2*%
%TO.N,PG5*%
X123765000Y-99200000D03*
D11*
%TO.P,J26,1,Pin_1*%
%TO.N,PC9*%
X121225000Y-99200000D03*
%TD*%
D10*
%TO.P,J25,8,Pin_8*%
%TO.N,GND*%
X77765000Y-106820000D03*
%TO.P,J25,7,Pin_7*%
%TO.N,+5V*%
X75225000Y-106820000D03*
%TO.P,J25,6,Pin_6*%
%TO.N,PF8*%
X77765000Y-104280000D03*
%TO.P,J25,5,Pin_5*%
%TO.N,+3V3*%
X75225000Y-104280000D03*
%TO.P,J25,4,Pin_4*%
%TO.N,PF4*%
X77765000Y-101740000D03*
%TO.P,J25,3,Pin_3*%
%TO.N,PF7*%
X75225000Y-101740000D03*
%TO.P,J25,2,Pin_2*%
%TO.N,PF2*%
X77765000Y-99200000D03*
D11*
%TO.P,J25,1,Pin_1*%
%TO.N,PF3*%
X75225000Y-99200000D03*
%TD*%
D10*
%TO.P,J24,3,C*%
%TO.N,GND*%
X53500000Y-141555000D03*
%TO.P,J24,2,B*%
%TO.N,/BOOT_GPIO/BOOT1_L*%
X53500000Y-139015000D03*
D11*
%TO.P,J24,1,A*%
%TO.N,+3V3*%
X53500000Y-136475000D03*
%TD*%
%TO.P,J23,1,A*%
%TO.N,+3V3*%
X53500000Y-100460000D03*
D10*
%TO.P,J23,2,B*%
%TO.N,/BOOT_GPIO/BOOT0_L*%
X53500000Y-103000000D03*
%TO.P,J23,3,C*%
%TO.N,GND*%
X53500000Y-105540000D03*
%TD*%
%TO.P,J10,2,Pin_2*%
%TO.N,/SIM_ADC_P1*%
X139460000Y-150500000D03*
D11*
%TO.P,J10,1,Pin_1*%
%TO.N,/SIM_ADC_P0*%
X142000000Y-150500000D03*
%TD*%
D10*
%TO.P,J12,3,Pin_3*%
%TO.N,GND*%
X149500000Y-116830000D03*
%TO.P,J12,2,Pin_2*%
%TO.N,+5V*%
X149500000Y-114290000D03*
D11*
%TO.P,J12,1,Pin_1*%
%TO.N,RF_Data*%
X149500000Y-111750000D03*
%TD*%
D10*
%TO.P,J13,5,Pin_5*%
%TO.N,Net-(J13-Pad5)*%
X106750000Y-76410000D03*
%TO.P,J13,4,Pin_4*%
%TO.N,Net-(J13-Pad4)*%
X106750000Y-73870000D03*
%TO.P,J13,3,Pin_3*%
%TO.N,Net-(J13-Pad3)*%
X106750000Y-71330000D03*
%TO.P,J13,2,Pin_2*%
%TO.N,Net-(J13-Pad2)*%
X106750000Y-68790000D03*
D11*
%TO.P,J13,1,Pin_1*%
%TO.N,Net-(J13-Pad1)*%
X106750000Y-66250000D03*
%TD*%
D12*
%TO.P,J15,9,9*%
%TO.N,unconnected-(J15-Pad9)*%
X53145000Y-72355000D03*
%TO.P,J15,8,8*%
%TO.N,unconnected-(J15-Pad8)*%
X53145000Y-75125000D03*
%TO.P,J15,7,7*%
%TO.N,OBD1_CANH*%
X53145000Y-77895000D03*
%TO.P,J15,6,6*%
%TO.N,unconnected-(J15-Pad6)*%
X53145000Y-80665000D03*
%TO.P,J15,5,5*%
%TO.N,OBD2_CANL*%
X55985000Y-70970000D03*
%TO.P,J15,4,4*%
%TO.N,unconnected-(J15-Pad4)*%
X55985000Y-73740000D03*
%TO.P,J15,3,3*%
%TO.N,OBD1_GND*%
X55985000Y-76510000D03*
%TO.P,J15,2,2*%
%TO.N,OBD1_CANL*%
X55985000Y-79280000D03*
D13*
%TO.P,J15,1,1*%
%TO.N,OBD2_GND*%
X55985000Y-82050000D03*
D14*
%TO.P,J15,0,PAD*%
%TO.N,unconnected-(J15-Pad0)*%
X55685000Y-89010000D03*
X55685000Y-64010000D03*
%TD*%
D10*
%TO.P,J16,18,Pin_18*%
%TO.N,DCMI_PWD*%
X81570000Y-57000000D03*
%TO.P,J16,17,Pin_17*%
%TO.N,DCMI_RST*%
X81570000Y-54460000D03*
%TO.P,J16,16,Pin_16*%
%TO.N,DCMI_D0*%
X79030000Y-57000000D03*
%TO.P,J16,15,Pin_15*%
%TO.N,DCMI_D1*%
X79030000Y-54460000D03*
%TO.P,J16,14,Pin_14*%
%TO.N,DCMI_D2*%
X76490000Y-57000000D03*
%TO.P,J16,13,Pin_13*%
%TO.N,DCMI_D3*%
X76490000Y-54460000D03*
%TO.P,J16,12,Pin_12*%
%TO.N,DCMI_D4*%
X73950000Y-57000000D03*
%TO.P,J16,11,Pin_11*%
%TO.N,DCMI_D5*%
X73950000Y-54460000D03*
%TO.P,J16,10,Pin_10*%
%TO.N,DCMI_D6*%
X71410000Y-57000000D03*
%TO.P,J16,9,Pin_9*%
%TO.N,DCMI_D7*%
X71410000Y-54460000D03*
%TO.P,J16,8,Pin_8*%
%TO.N,DCMI_XCLK*%
X68870000Y-57000000D03*
%TO.P,J16,7,Pin_7*%
%TO.N,DCMI_PCLK*%
X68870000Y-54460000D03*
%TO.P,J16,6,Pin_6*%
%TO.N,DCMI_HS*%
X66330000Y-57000000D03*
%TO.P,J16,5,Pin_5*%
%TO.N,DCMI_VS*%
X66330000Y-54460000D03*
%TO.P,J16,4,Pin_4*%
%TO.N,DCMI_SDA*%
X63790000Y-57000000D03*
%TO.P,J16,3,Pin_3*%
%TO.N,DCMI_SCL*%
X63790000Y-54460000D03*
%TO.P,J16,2,Pin_2*%
%TO.N,GND*%
X61250000Y-57000000D03*
D11*
%TO.P,J16,1,Pin_1*%
%TO.N,+3V3*%
X61250000Y-54460000D03*
%TD*%
D10*
%TO.P,J17,14,Pin_14*%
%TO.N,Touch_INT*%
X141770000Y-54460000D03*
%TO.P,J17,13,Pin_13*%
%TO.N,SPI3_MISO*%
X139230000Y-54460000D03*
%TO.P,J17,12,Pin_12*%
%TO.N,SPI3_MOSI*%
X136690000Y-54460000D03*
%TO.P,J17,11,Pin_11*%
%TO.N,SPI3_CS_Touch*%
X134150000Y-54460000D03*
%TO.P,J17,10,Pin_10*%
%TO.N,SPI3_SCK*%
X131610000Y-54460000D03*
%TO.P,J17,9,Pin_9*%
%TO.N,SPI3_MISO*%
X129070000Y-54460000D03*
%TO.P,J17,8,Pin_8*%
%TO.N,+3V3*%
X126530000Y-54460000D03*
%TO.P,J17,7,Pin_7*%
%TO.N,SPI3_SCK*%
X123990000Y-54460000D03*
%TO.P,J17,6,Pin_6*%
%TO.N,SPI3_MOSI*%
X121450000Y-54460000D03*
%TO.P,J17,5,Pin_5*%
%TO.N,LCD_DC*%
X118910000Y-54460000D03*
%TO.P,J17,4,Pin_4*%
%TO.N,LCD_RST*%
X116370000Y-54460000D03*
%TO.P,J17,3,Pin_3*%
%TO.N,SPI3_CS_LCD*%
X113830000Y-54460000D03*
%TO.P,J17,2,Pin_2*%
%TO.N,GND*%
X111290000Y-54460000D03*
D11*
%TO.P,J17,1,Pin_1*%
%TO.N,+3V3*%
X108750000Y-54460000D03*
%TD*%
%TO.P,J11,1,Pin_1*%
%TO.N,Net-(J11-Pad1)*%
X83250000Y-66250000D03*
D10*
%TO.P,J11,2,Pin_2*%
%TO.N,Net-(J11-Pad2)*%
X83250000Y-68790000D03*
%TO.P,J11,3,Pin_3*%
%TO.N,Net-(J11-Pad3)*%
X83250000Y-71330000D03*
%TO.P,J11,4,Pin_4*%
%TO.N,Net-(J11-Pad4)*%
X83250000Y-73870000D03*
%TO.P,J11,5,Pin_5*%
%TO.N,Net-(J11-Pad5)*%
X83250000Y-76410000D03*
%TD*%
D11*
%TO.P,J3,1,Pin_1*%
%TO.N,/SIM_PCM_P1*%
X135500000Y-150500000D03*
D10*
%TO.P,J3,2,Pin_2*%
%TO.N,/SIM_PCM_P2*%
X132960000Y-150500000D03*
%TO.P,J3,3,Pin_3*%
%TO.N,/SIM_PCM_P3*%
X130420000Y-150500000D03*
%TO.P,J3,4,Pin_4*%
%TO.N,/SIM_PCM_P4*%
X127880000Y-150500000D03*
%TD*%
D11*
%TO.P,J1,1,Pin_1*%
%TO.N,/KBR3*%
X149475000Y-141375000D03*
D10*
%TO.P,J1,2,Pin_2*%
%TO.N,/KBR2*%
X149475000Y-138835000D03*
%TO.P,J1,3,Pin_3*%
%TO.N,/KBR1*%
X149475000Y-136295000D03*
%TO.P,J1,4,Pin_4*%
%TO.N,/KBR0*%
X149475000Y-133755000D03*
%TO.P,J1,5,Pin_5*%
%TO.N,/KBC3*%
X149475000Y-131215000D03*
%TO.P,J1,6,Pin_6*%
%TO.N,/KBC2*%
X149475000Y-128675000D03*
%TO.P,J1,7,Pin_7*%
%TO.N,/KBC1*%
X149475000Y-126135000D03*
%TO.P,J1,8,Pin_8*%
%TO.N,/KBC0*%
X149475000Y-123595000D03*
%TD*%
D11*
%TO.P,J4,1,Pin_1*%
%TO.N,/SIM_GPIO_P1*%
X123775000Y-150500000D03*
D10*
%TO.P,J4,2,Pin_2*%
%TO.N,/SIM_GPIO_P2*%
X121235000Y-150500000D03*
%TD*%
D11*
%TO.P,J5,1,Pin_1*%
%TO.N,/SIM_PWM_P1*%
X117275000Y-150500000D03*
D10*
%TO.P,J5,2,Pin_2*%
%TO.N,/SIM_PWM_P2*%
X114735000Y-150500000D03*
%TD*%
D11*
%TO.P,J9,1,Pin_1*%
%TO.N,unconnected-(J9-Pad1)*%
X147500000Y-70350000D03*
D10*
%TO.P,J9,2,Pin_2*%
%TO.N,/SWCLK_P*%
X150040000Y-70350000D03*
%TO.P,J9,3,Pin_3*%
%TO.N,unconnected-(J9-Pad3)*%
X147500000Y-67810000D03*
%TO.P,J9,4,Pin_4*%
%TO.N,/SWDIO_P*%
X150040000Y-67810000D03*
%TO.P,J9,5,Pin_5*%
%TO.N,GND*%
X147500000Y-65270000D03*
%TO.P,J9,6,Pin_6*%
X150040000Y-65270000D03*
%TO.P,J9,7,Pin_7*%
%TO.N,+3V3*%
X147500000Y-62730000D03*
%TO.P,J9,8,Pin_8*%
X150040000Y-62730000D03*
%TO.P,J9,9,Pin_9*%
%TO.N,+5V*%
X147500000Y-60190000D03*
%TO.P,J9,10,Pin_10*%
X150040000Y-60190000D03*
%TD*%
D15*
%TO.P,J8,S1,S1*%
%TO.N,unconnected-(J8-PadS1)*%
X146550000Y-83750000D03*
%TO.P,J8,S2,S2*%
%TO.N,unconnected-(J8-PadS2)*%
X146550000Y-78750000D03*
D16*
%TO.P,J8,S3,S3*%
%TO.N,unconnected-(J8-PadS3)*%
X149250000Y-84750000D03*
%TO.P,J8,S6,S6*%
%TO.N,unconnected-(J8-PadS6)*%
X149250000Y-77750000D03*
%TD*%
D17*
%TO.P,H1,1,1*%
%TO.N,GND*%
X147174175Y-148174175D03*
X148500000Y-147625000D03*
X150375000Y-149500000D03*
X147174175Y-150825825D03*
X149825825Y-150825825D03*
D18*
X148500000Y-149500000D03*
D17*
X148500000Y-151375000D03*
X149825825Y-148174175D03*
X146625000Y-149500000D03*
%TD*%
D11*
%TO.P,J6,1,Pin_1*%
%TO.N,/SIM_I2C_P1*%
X110500000Y-150500000D03*
D10*
%TO.P,J6,2,Pin_2*%
%TO.N,/SIM_I2C_P2*%
X107960000Y-150500000D03*
%TD*%
D17*
%TO.P,H3,1,1*%
%TO.N,GND*%
X54500000Y-151375000D03*
X52625000Y-149500000D03*
X54500000Y-147625000D03*
X56375000Y-149500000D03*
X53174175Y-148174175D03*
X55825825Y-150825825D03*
X53174175Y-150825825D03*
X55825825Y-148174175D03*
D18*
X54500000Y-149500000D03*
%TD*%
D17*
%TO.P,H4,1,1*%
%TO.N,GND*%
X54500000Y-53625000D03*
X53174175Y-54174175D03*
X53174175Y-56825825D03*
X56375000Y-55500000D03*
D18*
X54500000Y-55500000D03*
D17*
X55825825Y-56825825D03*
X52625000Y-55500000D03*
X54500000Y-57375000D03*
X55825825Y-54174175D03*
%TD*%
D19*
%TO.P,J7,S1,S1*%
%TO.N,unconnected-(J7-PadS1)*%
X76500000Y-147550000D03*
%TO.P,J7,S2,S2*%
%TO.N,unconnected-(J7-PadS2)*%
X81500000Y-147550000D03*
D20*
%TO.P,J7,S3,S3*%
%TO.N,unconnected-(J7-PadS3)*%
X75500000Y-150250000D03*
%TO.P,J7,S6,S6*%
%TO.N,unconnected-(J7-PadS6)*%
X82500000Y-150250000D03*
%TD*%
D21*
%TO.P,J2,1,Pin_1*%
%TO.N,+BATT*%
X145750000Y-88500000D03*
D22*
%TO.P,J2,2,Pin_2*%
%TO.N,GND*%
X148250000Y-88500000D03*
%TD*%
D17*
%TO.P,H2,1,1*%
%TO.N,GND*%
X150375000Y-55500000D03*
X148500000Y-53625000D03*
X149825825Y-56825825D03*
D18*
X148500000Y-55500000D03*
D17*
X149825825Y-54174175D03*
X148500000Y-57375000D03*
X146625000Y-55500000D03*
X147174175Y-56825825D03*
X147174175Y-54174175D03*
%TD*%
D23*
%TO.N,SPI2_MOSI*%
X68500000Y-121275000D03*
%TO.N,+3V3*%
X68500000Y-120175000D03*
%TO.N,GND*%
X68500000Y-117975000D03*
%TO.N,SPI2_MISO*%
X68500000Y-116875000D03*
%TO.N,GND*%
X117000000Y-116500000D03*
%TO.N,SIM_RXM*%
X118000000Y-114750000D03*
X118000000Y-117500000D03*
%TO.N,GND*%
X56212500Y-141500000D03*
X56212500Y-105500000D03*
%TO.N,/SIM_ADC_P0*%
X134500000Y-140250000D03*
%TO.N,/SIM_ADC_P1*%
X133250000Y-141500000D03*
%TO.N,/SIM_PCM_P1*%
X129000000Y-141500000D03*
%TO.N,/SIM_PCM_P2*%
X128000000Y-141500000D03*
%TO.N,/SIM_PCM_P3*%
X127000000Y-141500000D03*
%TO.N,/SIM_PCM_P4*%
X126000000Y-141500000D03*
%TO.N,/SIM_GPIO_P1*%
X125000000Y-141500000D03*
%TO.N,/SIM_GPIO_P2*%
X124000000Y-141500000D03*
%TO.N,/SIM_PWM_P1*%
X123000000Y-141500000D03*
%TO.N,/SIM_PWM_P2*%
X122000000Y-141500000D03*
%TO.N,/SIM_I2C_P1*%
X120000000Y-141500000D03*
%TO.N,/SIM_I2C_P2*%
X119000000Y-141500000D03*
%TO.N,+3V3*%
X138500000Y-148000000D03*
X128500000Y-148000000D03*
X118500000Y-147750000D03*
%TO.N,GND*%
X135000000Y-147700000D03*
X125000000Y-147450000D03*
X115000000Y-147450000D03*
X120000000Y-145250000D03*
X130000000Y-145500000D03*
X110000000Y-145250000D03*
D24*
X108500000Y-128120000D03*
X142600000Y-86000000D03*
D25*
%TO.N,+5V*%
X139500000Y-72000000D03*
D23*
X122500000Y-93000000D03*
D24*
X80500000Y-116000000D03*
X83000000Y-118500000D03*
D23*
X145750000Y-91000000D03*
D24*
X136250000Y-97000000D03*
D23*
X141000000Y-91000000D03*
%TO.N,GND*%
X89000000Y-80500000D03*
D25*
X146520000Y-100480000D03*
X140250000Y-104000000D03*
X144750000Y-76000000D03*
D23*
X137000000Y-143500000D03*
D24*
X131500000Y-113000000D03*
D23*
X64750000Y-137000000D03*
D25*
X144750000Y-79000000D03*
D23*
X142000000Y-143500000D03*
X116915734Y-141415734D03*
X113500000Y-133000000D03*
X134500000Y-126000000D03*
X122000000Y-117500000D03*
X74250000Y-87500000D03*
X71500000Y-92750000D03*
X63775000Y-76000000D03*
X85250000Y-109480000D03*
X114500000Y-101500000D03*
X121000000Y-141500000D03*
D24*
X104500000Y-78000000D03*
D23*
X79000000Y-92250000D03*
D25*
X143500000Y-79000000D03*
D24*
X130500000Y-108000000D03*
D23*
X60750000Y-137000000D03*
X137000000Y-118500000D03*
X93095000Y-137000000D03*
D25*
X96000000Y-65500000D03*
D23*
X100520000Y-130250000D03*
X80750000Y-94000000D03*
X63775000Y-72000000D03*
D25*
X144020000Y-107480000D03*
X125250000Y-80500000D03*
D23*
X64750000Y-136000000D03*
D25*
X135500000Y-77250000D03*
D23*
X134500000Y-139000000D03*
X81000000Y-107750000D03*
D25*
X144020000Y-100480000D03*
D23*
X111980000Y-91750000D03*
D24*
X146250000Y-96500000D03*
D23*
X84500000Y-109480000D03*
D24*
X131500000Y-95000000D03*
D23*
X68750000Y-133500000D03*
D25*
X144020000Y-103980000D03*
D24*
X144750000Y-94000000D03*
X146250000Y-94000000D03*
D23*
X60750000Y-134500000D03*
D25*
X143500000Y-77500000D03*
D23*
X113500000Y-123000000D03*
X108480000Y-116250000D03*
X126500000Y-95049500D03*
X88250000Y-122500000D03*
D24*
X133250000Y-87500000D03*
X144750000Y-110750000D03*
X144750000Y-96500000D03*
D25*
X137000000Y-77250000D03*
D23*
X68750000Y-134500000D03*
D25*
X146520000Y-103980000D03*
D23*
X142000000Y-118500000D03*
X134500000Y-123000000D03*
D25*
X143500000Y-76000000D03*
D23*
X58525000Y-94750000D03*
X97980000Y-88750000D03*
X134500000Y-127000000D03*
X118750000Y-96750000D03*
X60775000Y-95500000D03*
X113750000Y-101500000D03*
X84250000Y-110500000D03*
D24*
X131500000Y-116500000D03*
D23*
X108750000Y-123000000D03*
X125000000Y-116500000D03*
X70750000Y-92750000D03*
D25*
X149020000Y-100480000D03*
D23*
X73000000Y-109250000D03*
X134500000Y-137000000D03*
X87000000Y-114250000D03*
X72750000Y-94500000D03*
X112750000Y-94000000D03*
X60750000Y-133500000D03*
D25*
X146520000Y-107480000D03*
D23*
X97000000Y-116500000D03*
D24*
X130500000Y-95000000D03*
D25*
X134000000Y-77250000D03*
D23*
X83000000Y-94000000D03*
D25*
X81500000Y-146000000D03*
D23*
X88750000Y-90020000D03*
X132000000Y-144500000D03*
D24*
X130500000Y-90000000D03*
D23*
X84750000Y-102250000D03*
X80250000Y-107750000D03*
X60750000Y-136000000D03*
X97000000Y-115500000D03*
D24*
X131500000Y-108000000D03*
D25*
X94000000Y-67500000D03*
D23*
X122500000Y-92000000D03*
X90500000Y-115000000D03*
X87750000Y-113480000D03*
X84000000Y-102250000D03*
X92500000Y-123000000D03*
X111000000Y-115500000D03*
X113500000Y-139000000D03*
D24*
X104500000Y-79000000D03*
D23*
X81500000Y-94000000D03*
X82250000Y-94000000D03*
D24*
X104500000Y-77000000D03*
X130500000Y-113000000D03*
X131500000Y-90000000D03*
D25*
X149020000Y-103980000D03*
D23*
X96000000Y-135000000D03*
X97500000Y-81095000D03*
X67750000Y-102750000D03*
X134500000Y-124000000D03*
X150250000Y-95750000D03*
X65000000Y-104850000D03*
D25*
X94000000Y-65500000D03*
D23*
X72450000Y-106300000D03*
X111000000Y-142500000D03*
D25*
X96000000Y-67500000D03*
X122750000Y-80500000D03*
X144750000Y-77500000D03*
X149020000Y-107480000D03*
D23*
X64595000Y-146845000D03*
X86000000Y-101500000D03*
X106000000Y-142500000D03*
X84250000Y-111500000D03*
D24*
X131500000Y-115000000D03*
D23*
X65000000Y-97350000D03*
X126500000Y-89970500D03*
D24*
X134000000Y-86000000D03*
D23*
X103000000Y-89750000D03*
D25*
X82750000Y-146000000D03*
D23*
X113000000Y-107055000D03*
D25*
X124000000Y-80500000D03*
D23*
X102520000Y-116000000D03*
%TO.N,+3V3*%
X85000000Y-98000000D03*
X103000000Y-88750000D03*
X81603426Y-112651048D03*
D25*
X135500000Y-72000000D03*
D23*
X71500000Y-89500000D03*
X71500000Y-88750000D03*
X63000000Y-62000000D03*
X92500000Y-84905000D03*
X99000000Y-116500000D03*
X63275000Y-95500000D03*
X87000000Y-108000000D03*
X64750000Y-62000000D03*
X87000000Y-98000000D03*
X97020000Y-88750000D03*
X111020000Y-91750000D03*
X79250000Y-94500000D03*
X111000000Y-114520000D03*
X103480000Y-116000000D03*
X113000000Y-106095000D03*
X90500000Y-123000000D03*
X86000000Y-102500000D03*
D24*
X85500000Y-79000000D03*
D23*
X108750000Y-147500000D03*
X86000000Y-108000000D03*
D25*
X134000000Y-72000000D03*
D23*
X95000000Y-79500000D03*
D25*
X127000000Y-83000000D03*
D23*
X89000000Y-83000000D03*
D24*
X85500000Y-78000000D03*
D23*
X86000000Y-98000000D03*
X128250000Y-88750000D03*
D25*
X129500000Y-83000000D03*
D24*
X85500000Y-77000000D03*
D23*
X75500000Y-95250000D03*
D25*
X132000000Y-83000000D03*
D23*
X83500000Y-98000000D03*
X92500000Y-115000000D03*
X113000000Y-99500000D03*
X99000000Y-115500000D03*
X89900000Y-91900000D03*
X112000000Y-99500000D03*
X76750000Y-88000000D03*
D25*
X137000000Y-72000000D03*
D23*
%TO.N,NRST*%
X73500000Y-108500000D03*
X65000000Y-102750000D03*
%TO.N,/SIM_RST_Pro*%
X95500000Y-137000000D03*
X99500000Y-137000000D03*
%TO.N,Left*%
X67250000Y-136000000D03*
X71250000Y-137000000D03*
%TO.N,MIC1P*%
X63250000Y-134000000D03*
X67500000Y-138750000D03*
%TO.N,+BATT*%
X124750000Y-96250000D03*
%TO.N,SIM_USB_D-*%
X106000000Y-131901600D03*
X79716025Y-144216025D03*
%TO.N,SIM_USB_D+*%
X106000000Y-131098400D03*
X80283975Y-144783975D03*
%TO.N,USB_CONN_D-*%
X125201100Y-92901600D03*
X141250000Y-79651600D03*
%TO.N,USB_CONN_D+*%
X141250000Y-78848400D03*
X125201100Y-92098400D03*
%TO.N,SPI2_MOSI*%
X90250000Y-108500000D03*
%TO.N,SPI2_SCK*%
X81000000Y-119075000D03*
X106500000Y-112250000D03*
%TO.N,SPI2_MISO*%
X90250000Y-107500000D03*
%TO.N,OBD2_GND*%
X60025000Y-72000000D03*
%TO.N,DCMI_HS*%
X92000000Y-99000000D03*
%TO.N,DCMI_PCLK*%
X92000000Y-97500000D03*
%TO.N,DCMI_XCLK*%
X96750000Y-98250000D03*
%TO.N,DCMI_D7*%
X90250000Y-96500000D03*
%TO.N,DCMI_D6*%
X90250000Y-95500000D03*
%TO.N,DCMI_D4*%
X85500000Y-88250000D03*
%TO.N,DCMI_D3*%
X87750000Y-89250000D03*
%TO.N,DCMI_D2*%
X99250000Y-99500000D03*
%TO.N,DCMI_D1*%
X101000000Y-100000000D03*
%TO.N,DCMI_D0*%
X102750000Y-100500000D03*
%TO.N,DCMI_RST*%
X108733694Y-102500000D03*
%TO.N,DCMI_PWD*%
X108750000Y-101500000D03*
%TO.N,SPI1_SCK*%
X92500000Y-82365000D03*
X96750000Y-86250000D03*
%TO.N,/SIM_DATA_Pro*%
X98175000Y-136325000D03*
X97150000Y-134350000D03*
%TO.N,CAN_H*%
X61525000Y-70250000D03*
X61525000Y-85750000D03*
X61525000Y-82250000D03*
%TO.N,CAN_L*%
X62525000Y-85750000D03*
X62525000Y-66000000D03*
%TO.N,PWRKEY*%
X83750000Y-117750000D03*
X105250000Y-121000000D03*
%TO.N,SWDIO*%
X130000000Y-70000000D03*
X133500000Y-66500000D03*
%TO.N,BOOT0*%
X90500000Y-101500000D03*
X57500000Y-100750000D03*
%TO.N,SIM_RTSM*%
X120000000Y-117500000D03*
X122000000Y-114750000D03*
%TO.N,SIM_DTR*%
X119000000Y-107500000D03*
X108750000Y-105500000D03*
%TO.N,SIM_DTRM*%
X124000000Y-117500000D03*
X124000000Y-114750000D03*
%TO.N,SIM_DCDM*%
X122000000Y-120250000D03*
X120000000Y-114750000D03*
%TO.N,SIM_INT*%
X108750000Y-107500000D03*
X118500000Y-108250000D03*
%TO.N,WIFI_EN*%
X90000000Y-65750000D03*
X100250000Y-89500000D03*
%TO.N,WIFI_TX*%
X102750000Y-93750000D03*
X103000000Y-64750000D03*
%TO.N,WIFI_RX*%
X101250000Y-93750000D03*
X103000000Y-62750000D03*
%TO.N,RF_Data*%
X135500000Y-111750000D03*
X114500000Y-111750000D03*
%TO.N,Gyro_INT*%
X87000000Y-104500000D03*
X71500000Y-103250000D03*
%TO.N,Touch_INT*%
X108750000Y-97250000D03*
%TO.N,PF8*%
X86000000Y-104000000D03*
%TO.N,PF7*%
X85000000Y-103500000D03*
%TO.N,BOOT1*%
X82750000Y-122000000D03*
X94500000Y-117500000D03*
X87250000Y-117500000D03*
X57500000Y-135500000D03*
%TO.N,CAN_TX*%
X60525000Y-92000000D03*
X94250000Y-99500000D03*
%TO.N,CAN_RX*%
X65025000Y-93470000D03*
X95500000Y-99500000D03*
%TD*%
D26*
%TO.N,RF_Data*%
X135500000Y-111750000D02*
X114500000Y-111750000D01*
D27*
%TO.N,+5V*%
X112250000Y-112250000D02*
X112250000Y-116000000D01*
X114500000Y-110000000D02*
X112250000Y-112250000D01*
X112250000Y-116000000D02*
X105975000Y-122275000D01*
X120585000Y-110000000D02*
X114500000Y-110000000D01*
X123765000Y-106820000D02*
X120585000Y-110000000D01*
X105975000Y-122275000D02*
X103320000Y-122275000D01*
D28*
%TO.N,BOOT0*%
X87225000Y-100475000D02*
X57775000Y-100475000D01*
X88250000Y-101500000D02*
X87225000Y-100475000D01*
X57775000Y-100475000D02*
X57500000Y-100750000D01*
X90500000Y-101500000D02*
X88250000Y-101500000D01*
%TO.N,SPI2_MISO*%
X69675000Y-116875000D02*
X68500000Y-116875000D01*
%TO.N,SPI2_MOSI*%
X70175000Y-121275000D02*
X68500000Y-121275000D01*
%TO.N,SIM_DCDM*%
X119000000Y-118000000D02*
X121250000Y-120250000D01*
X119000000Y-115750000D02*
X119000000Y-118000000D01*
X121250000Y-120250000D02*
X122000000Y-120250000D01*
X120000000Y-114750000D02*
X119000000Y-115750000D01*
%TO.N,SIM_RXM*%
X118000000Y-114750000D02*
X118000000Y-117500000D01*
%TO.N,BOOT1*%
X69750000Y-123250000D02*
X57500000Y-135500000D01*
X81500000Y-123250000D02*
X69750000Y-123250000D01*
X82750000Y-122000000D02*
X81500000Y-123250000D01*
%TO.N,/SIM_ADC_P0*%
X142000000Y-147250000D02*
X142000000Y-150500000D01*
X135000000Y-140250000D02*
X142000000Y-147250000D01*
X134500000Y-140250000D02*
X135000000Y-140250000D01*
%TO.N,/SIM_ADC_P1*%
X139460000Y-147710000D02*
X139460000Y-150500000D01*
X133250000Y-141500000D02*
X139460000Y-147710000D01*
%TO.N,/SIM_I2C_P2*%
X110460000Y-148000000D02*
X107960000Y-150500000D01*
X111500000Y-148000000D02*
X110460000Y-148000000D01*
X118000000Y-141500000D02*
X111500000Y-148000000D01*
X119000000Y-141500000D02*
X118000000Y-141500000D01*
%TO.N,/SIM_PCM_P4*%
X127000000Y-147000000D02*
X127000000Y-149620000D01*
X127000000Y-149620000D02*
X127880000Y-150500000D01*
X126000000Y-146000000D02*
X127000000Y-147000000D01*
X126000000Y-141500000D02*
X126000000Y-146000000D01*
%TO.N,/SIM_PCM_P2*%
X132960000Y-149460000D02*
X132960000Y-150500000D01*
X128000000Y-144500000D02*
X132960000Y-149460000D01*
X128000000Y-141500000D02*
X128000000Y-144500000D01*
%TO.N,/SIM_PCM_P1*%
X129000000Y-143500000D02*
X135500000Y-150000000D01*
X135500000Y-150000000D02*
X135500000Y-150500000D01*
X129000000Y-141500000D02*
X129000000Y-143500000D01*
%TO.N,/SIM_PCM_P3*%
X130420000Y-148670000D02*
X130420000Y-150500000D01*
X127000000Y-145250000D02*
X130420000Y-148670000D01*
X127000000Y-141500000D02*
X127000000Y-145250000D01*
%TO.N,/SIM_GPIO_P1*%
X125750000Y-148525000D02*
X123775000Y-150500000D01*
X125750000Y-147000000D02*
X125750000Y-148525000D01*
X125000000Y-146250000D02*
X125750000Y-147000000D01*
X125000000Y-141500000D02*
X125000000Y-146250000D01*
%TO.N,/SIM_GPIO_P2*%
X124000000Y-147735000D02*
X121235000Y-150500000D01*
X124000000Y-141500000D02*
X124000000Y-147735000D01*
%TO.N,/SIM_PWM_P1*%
X123000000Y-144775000D02*
X117275000Y-150500000D01*
X123000000Y-141500000D02*
X123000000Y-144775000D01*
%TO.N,/SIM_PWM_P2*%
X122000000Y-141500000D02*
X114735000Y-148765000D01*
X114735000Y-148765000D02*
X114735000Y-150500000D01*
%TO.N,/SIM_I2C_P1*%
X111000000Y-150500000D02*
X110500000Y-150500000D01*
X120000000Y-141500000D02*
X111000000Y-150500000D01*
D27*
%TO.N,+5V*%
X75225000Y-110725000D02*
X80500000Y-116000000D01*
X101345000Y-124250000D02*
X103320000Y-122275000D01*
X83000000Y-118500000D02*
X88750000Y-124250000D01*
D29*
X139500000Y-68190000D02*
X147500000Y-60190000D01*
D27*
X75225000Y-106820000D02*
X75225000Y-110725000D01*
X141000000Y-91000000D02*
X145750000Y-91000000D01*
X149500000Y-114290000D02*
X141790000Y-114290000D01*
D28*
X122500000Y-93000000D02*
X122500000Y-95000000D01*
X124500000Y-97000000D02*
X136250000Y-97000000D01*
D29*
X147500000Y-60190000D02*
X150040000Y-60190000D01*
D27*
X141790000Y-114290000D02*
X136500000Y-109000000D01*
D28*
X122500000Y-95000000D02*
X124500000Y-97000000D01*
D27*
X88750000Y-124250000D02*
X101345000Y-124250000D01*
X136500000Y-109000000D02*
X136250000Y-108750000D01*
D29*
X139500000Y-72000000D02*
X139500000Y-68190000D01*
D27*
X136250000Y-108750000D02*
X136250000Y-97000000D01*
D28*
%TO.N,NRST*%
X65000000Y-102750000D02*
X65000000Y-103500000D01*
X70000000Y-108500000D02*
X73500000Y-108500000D01*
X65000000Y-103500000D02*
X70000000Y-108500000D01*
%TO.N,/SIM_RST_Pro*%
X99500000Y-137000000D02*
X95500000Y-137000000D01*
%TO.N,Left*%
X67250000Y-136000000D02*
X68250000Y-137000000D01*
X68250000Y-137000000D02*
X71250000Y-137000000D01*
%TO.N,MIC1P*%
X67500000Y-138750000D02*
X67500000Y-137500000D01*
X67500000Y-137500000D02*
X64000000Y-134000000D01*
X64000000Y-134000000D02*
X63250000Y-134000000D01*
%TO.N,+BATT*%
X133250000Y-96250000D02*
X141000000Y-88500000D01*
X124750000Y-96250000D02*
X133250000Y-96250000D01*
X141000000Y-88500000D02*
X145750000Y-88500000D01*
D30*
%TO.N,SIM_USB_D-*%
X106767845Y-131846163D02*
X106767845Y-132153837D01*
X106000000Y-131901600D02*
X106169445Y-131732155D01*
X91653838Y-132517845D02*
X79955658Y-144216025D01*
X106169445Y-131732155D02*
X106653837Y-131732155D01*
X106653837Y-131732155D02*
X106767845Y-131846163D01*
X106403837Y-132517845D02*
X91653838Y-132517845D01*
X106767845Y-132153837D02*
X106403837Y-132517845D01*
X79955658Y-144216025D02*
X79716025Y-144216025D01*
%TO.N,SIM_USB_D+*%
X106596163Y-132982155D02*
X91846162Y-132982155D01*
X107232155Y-132346163D02*
X106596163Y-132982155D01*
X106000000Y-131098400D02*
X106169445Y-131267845D01*
X80283975Y-144544342D02*
X80283975Y-144783975D01*
X91846162Y-132982155D02*
X80283975Y-144544342D01*
X106169445Y-131267845D02*
X106846163Y-131267845D01*
X106846163Y-131267845D02*
X107232155Y-131653837D01*
X107232155Y-131653837D02*
X107232155Y-132346163D01*
%TO.N,USB_CONN_D-*%
X125370545Y-92732155D02*
X126096163Y-92732155D01*
X139346163Y-79482155D02*
X141080555Y-79482155D01*
X141080555Y-79482155D02*
X141250000Y-79651600D01*
X125201100Y-92901600D02*
X125370545Y-92732155D01*
X126096163Y-92732155D02*
X139346163Y-79482155D01*
%TO.N,USB_CONN_D+*%
X139153837Y-79017845D02*
X141080555Y-79017845D01*
X125370545Y-92267845D02*
X125903837Y-92267845D01*
X125201100Y-92098400D02*
X125370545Y-92267845D01*
X141080555Y-79017845D02*
X141250000Y-78848400D01*
X125903837Y-92267845D02*
X139153837Y-79017845D01*
D28*
%TO.N,SPI2_MOSI*%
X71075000Y-121925435D02*
X71075000Y-120624565D01*
X90250000Y-108750000D02*
X77725000Y-121275000D01*
X73475000Y-121925435D02*
X73475000Y-120624565D01*
X74675000Y-121925435D02*
X74675000Y-120624565D01*
X75875000Y-121925435D02*
X75875000Y-120624565D01*
X74075000Y-120624565D02*
X74075000Y-121925435D01*
X70475000Y-120624565D02*
X70475000Y-120975000D01*
X77725000Y-121275000D02*
X76775000Y-121275000D01*
X90250000Y-108500000D02*
X90250000Y-108750000D01*
X72875000Y-120624565D02*
X72875000Y-121925435D01*
X76475000Y-121575000D02*
X76475000Y-121925435D01*
X75275000Y-120624565D02*
X75275000Y-121925435D01*
X71675000Y-120624565D02*
X71675000Y-121925435D01*
X72275000Y-121925435D02*
X72275000Y-120624565D01*
X75575000Y-120324565D02*
G75*
G02*
X75875000Y-120624565I0J-300000D01*
G01*
X73775000Y-122225435D02*
G75*
G03*
X74075000Y-121925435I0J300000D01*
G01*
X76475000Y-121575000D02*
G75*
G02*
X76775000Y-121275000I300000J0D01*
G01*
X71675000Y-120624565D02*
G75*
G02*
X71975000Y-120324565I300000J0D01*
G01*
X73475000Y-121925435D02*
G75*
G03*
X73775000Y-122225435I300000J0D01*
G01*
X75275000Y-120624565D02*
G75*
G02*
X75575000Y-120324565I300000J0D01*
G01*
X70475000Y-120624565D02*
G75*
G02*
X70775000Y-120324565I300000J0D01*
G01*
X71975000Y-120324565D02*
G75*
G02*
X72275000Y-120624565I0J-300000D01*
G01*
X73175000Y-120324565D02*
G75*
G02*
X73475000Y-120624565I0J-300000D01*
G01*
X70775000Y-120324565D02*
G75*
G02*
X71075000Y-120624565I0J-300000D01*
G01*
X75875000Y-121925435D02*
G75*
G03*
X76175000Y-122225435I300000J0D01*
G01*
X76175000Y-122225435D02*
G75*
G03*
X76475000Y-121925435I0J300000D01*
G01*
X74075000Y-120624565D02*
G75*
G02*
X74375000Y-120324565I300000J0D01*
G01*
X74375000Y-120324565D02*
G75*
G02*
X74675000Y-120624565I0J-300000D01*
G01*
X72275000Y-121925435D02*
G75*
G03*
X72575000Y-122225435I300000J0D01*
G01*
X74975000Y-122225435D02*
G75*
G03*
X75275000Y-121925435I0J300000D01*
G01*
X72875000Y-120624565D02*
G75*
G02*
X73175000Y-120324565I300000J0D01*
G01*
X71075000Y-121925435D02*
G75*
G03*
X71375000Y-122225435I300000J0D01*
G01*
X71375000Y-122225435D02*
G75*
G03*
X71675000Y-121925435I0J300000D01*
G01*
X74675000Y-121925435D02*
G75*
G03*
X74975000Y-122225435I300000J0D01*
G01*
X72575000Y-122225435D02*
G75*
G03*
X72875000Y-121925435I0J300000D01*
G01*
X70175000Y-121275000D02*
G75*
G03*
X70475000Y-120975000I0J300000D01*
G01*
%TO.N,SPI2_SCK*%
X81000000Y-119075000D02*
X87825000Y-112250000D01*
X87825000Y-112250000D02*
X106500000Y-112250000D01*
%TO.N,SPI2_MISO*%
X90250000Y-107500000D02*
X90250000Y-107581466D01*
X70575000Y-117519240D02*
X70575000Y-116230760D01*
X74775000Y-116230760D02*
X74775000Y-117519240D01*
X73575000Y-116230760D02*
X73575000Y-117519240D01*
X75375000Y-117519240D02*
X75375000Y-116230760D01*
X72975000Y-117519240D02*
X72975000Y-116230760D01*
X75975000Y-116230760D02*
X75975000Y-117519240D01*
X80956466Y-116875000D02*
X76875000Y-116875000D01*
X72375000Y-116230760D02*
X72375000Y-117519240D01*
X74175000Y-117519240D02*
X74175000Y-116230760D01*
X69975000Y-116230760D02*
X69975000Y-116575000D01*
X71775000Y-117519240D02*
X71775000Y-116230760D01*
X76575000Y-116575000D02*
X76575000Y-116230760D01*
X90250000Y-107581466D02*
X80956466Y-116875000D01*
X71175000Y-116230760D02*
X71175000Y-117519240D01*
X69675000Y-116875000D02*
G75*
G03*
X69975000Y-116575000I0J300000D01*
G01*
X75075000Y-115930760D02*
G75*
G02*
X75375000Y-116230760I0J-300000D01*
G01*
X74175000Y-117519240D02*
G75*
G03*
X74475000Y-117819240I300000J0D01*
G01*
X72975000Y-117519240D02*
G75*
G03*
X73275000Y-117819240I300000J0D01*
G01*
X71175000Y-116230760D02*
G75*
G02*
X71475000Y-115930760I300000J0D01*
G01*
X70575000Y-117519240D02*
G75*
G03*
X70875000Y-117819240I300000J0D01*
G01*
X69975000Y-116230760D02*
G75*
G02*
X70275000Y-115930760I300000J0D01*
G01*
X71475000Y-115930760D02*
G75*
G02*
X71775000Y-116230760I0J-300000D01*
G01*
X75375000Y-117519240D02*
G75*
G03*
X75675000Y-117819240I300000J0D01*
G01*
X72375000Y-116230760D02*
G75*
G02*
X72675000Y-115930760I300000J0D01*
G01*
X73275000Y-117819240D02*
G75*
G03*
X73575000Y-117519240I0J300000D01*
G01*
X75975000Y-116230760D02*
G75*
G02*
X76275000Y-115930760I300000J0D01*
G01*
X75675000Y-117819240D02*
G75*
G03*
X75975000Y-117519240I0J300000D01*
G01*
X72675000Y-115930760D02*
G75*
G02*
X72975000Y-116230760I0J-300000D01*
G01*
X76275000Y-115930760D02*
G75*
G02*
X76575000Y-116230760I0J-300000D01*
G01*
X73875000Y-115930760D02*
G75*
G02*
X74175000Y-116230760I0J-300000D01*
G01*
X74775000Y-116230760D02*
G75*
G02*
X75075000Y-115930760I300000J0D01*
G01*
X70875000Y-117819240D02*
G75*
G03*
X71175000Y-117519240I0J300000D01*
G01*
X74475000Y-117819240D02*
G75*
G03*
X74775000Y-117519240I0J300000D01*
G01*
X73575000Y-116230760D02*
G75*
G02*
X73875000Y-115930760I300000J0D01*
G01*
X76575000Y-116575000D02*
G75*
G03*
X76875000Y-116875000I300000J0D01*
G01*
X71775000Y-117519240D02*
G75*
G03*
X72075000Y-117819240I300000J0D01*
G01*
X70275000Y-115930760D02*
G75*
G02*
X70575000Y-116230760I0J-300000D01*
G01*
X72075000Y-117819240D02*
G75*
G03*
X72375000Y-117519240I0J300000D01*
G01*
%TO.N,OBD2_GND*%
X60025000Y-72000000D02*
X60025000Y-78010000D01*
X60025000Y-78010000D02*
X55985000Y-82050000D01*
%TO.N,DCMI_HS*%
X66330000Y-76330000D02*
X89000000Y-99000000D01*
X89000000Y-99000000D02*
X92000000Y-99000000D01*
X66330000Y-57000000D02*
X66330000Y-76330000D01*
%TO.N,DCMI_PCLK*%
X90000000Y-97500000D02*
X92000000Y-97500000D01*
X70150000Y-77650000D02*
X90000000Y-97500000D01*
X68870000Y-54460000D02*
X70150000Y-55740000D01*
X70150000Y-55740000D02*
X70150000Y-77650000D01*
%TO.N,DCMI_XCLK*%
X96750000Y-98250000D02*
X89500000Y-98250000D01*
X68870000Y-77620000D02*
X68870000Y-57000000D01*
X89500000Y-98250000D02*
X68870000Y-77620000D01*
%TO.N,DCMI_D7*%
X72250000Y-61150000D02*
X72700000Y-61150000D01*
X73150000Y-61750000D02*
X72700000Y-61750000D01*
X72700000Y-61150000D02*
X73150000Y-61150000D01*
X72250000Y-62350000D02*
X72700000Y-62350000D01*
X73150000Y-59350000D02*
X72700000Y-59350000D01*
X72700000Y-62350000D02*
X73150000Y-62350000D01*
X72700000Y-59950000D02*
X73150000Y-59950000D01*
X73150000Y-60550000D02*
X72700000Y-60550000D01*
X72700000Y-61750000D02*
X72250000Y-61750000D01*
X73000000Y-64750000D02*
X73150000Y-64750000D01*
X73150000Y-62950000D02*
X72700000Y-62950000D01*
X72700000Y-59350000D02*
X72250000Y-59350000D01*
X72700000Y-62950000D02*
X72250000Y-62950000D01*
X72250000Y-58750000D02*
X72400000Y-58750000D01*
X90250000Y-96500000D02*
X90899501Y-95850499D01*
X73000000Y-64150000D02*
X72250000Y-64150000D01*
X72700000Y-55750000D02*
X71410000Y-54460000D01*
X72700000Y-63550000D02*
X73150000Y-63550000D01*
X90899501Y-94940234D02*
X72700000Y-76740733D01*
X73150000Y-64150000D02*
X73000000Y-64150000D01*
X72700000Y-57650791D02*
X72700000Y-55750000D01*
X72250000Y-63550000D02*
X72700000Y-63550000D01*
X72700000Y-60550000D02*
X72250000Y-60550000D01*
X72700000Y-58450000D02*
X72700000Y-57650791D01*
X72250000Y-59950000D02*
X72700000Y-59950000D01*
X90899501Y-95850499D02*
X90899501Y-94940234D01*
X72700000Y-76740733D02*
X72700000Y-65050000D01*
X73450000Y-62050000D02*
G75*
G02*
X73150000Y-62350000I-300000J0D01*
G01*
X72250000Y-63550000D02*
G75*
G03*
X71950000Y-63850000I0J-300000D01*
G01*
X72250000Y-59950000D02*
G75*
G03*
X71950000Y-60250000I0J-300000D01*
G01*
X71950000Y-62650000D02*
G75*
G03*
X72250000Y-62950000I300000J0D01*
G01*
X73150000Y-62950000D02*
G75*
G02*
X73450000Y-63250000I0J-300000D01*
G01*
X71950000Y-59050000D02*
G75*
G03*
X72250000Y-59350000I300000J0D01*
G01*
X73150000Y-61750000D02*
G75*
G02*
X73450000Y-62050000I0J-300000D01*
G01*
X73450000Y-63250000D02*
G75*
G02*
X73150000Y-63550000I-300000J0D01*
G01*
X73000000Y-64750000D02*
G75*
G03*
X72700000Y-65050000I0J-300000D01*
G01*
X72250000Y-62350000D02*
G75*
G03*
X71950000Y-62650000I0J-300000D01*
G01*
X72250000Y-61150000D02*
G75*
G03*
X71950000Y-61450000I0J-300000D01*
G01*
X73150000Y-59350000D02*
G75*
G02*
X73450000Y-59650000I0J-300000D01*
G01*
X73150000Y-64150000D02*
G75*
G02*
X73450000Y-64450000I0J-300000D01*
G01*
X71950000Y-60250000D02*
G75*
G03*
X72250000Y-60550000I300000J0D01*
G01*
X73450000Y-60850000D02*
G75*
G02*
X73150000Y-61150000I-300000J0D01*
G01*
X71950000Y-63850000D02*
G75*
G03*
X72250000Y-64150000I300000J0D01*
G01*
X73450000Y-64450000D02*
G75*
G02*
X73150000Y-64750000I-300000J0D01*
G01*
X72250000Y-58750000D02*
G75*
G03*
X71950000Y-59050000I0J-300000D01*
G01*
X71950000Y-61450000D02*
G75*
G03*
X72250000Y-61750000I300000J0D01*
G01*
X73150000Y-60550000D02*
G75*
G02*
X73450000Y-60850000I0J-300000D01*
G01*
X73450000Y-59650000D02*
G75*
G02*
X73150000Y-59950000I-300000J0D01*
G01*
X72700000Y-58450000D02*
G75*
G02*
X72400000Y-58750000I-300000J0D01*
G01*
%TO.N,DCMI_D6*%
X71853547Y-70990000D02*
X71410000Y-70990000D01*
X71410000Y-73390000D02*
X70966453Y-73390000D01*
X71853547Y-69790000D02*
X71410000Y-69790000D01*
X70966453Y-71590000D02*
X71410000Y-71590000D01*
X71110000Y-75790000D02*
X70966453Y-75790000D01*
X71853547Y-72190000D02*
X71410000Y-72190000D01*
X71410000Y-72190000D02*
X70966453Y-72190000D01*
X71110000Y-75190000D02*
X71853547Y-75190000D01*
X70966453Y-75190000D02*
X71110000Y-75190000D01*
X71410000Y-65290000D02*
X71410000Y-63566467D01*
X71410000Y-70390000D02*
X71853547Y-70390000D01*
X71410000Y-73990000D02*
X71853547Y-73990000D01*
X71853547Y-68590000D02*
X71410000Y-68590000D01*
X71410000Y-67390000D02*
X70966453Y-67390000D01*
X71410000Y-66790000D02*
X71853547Y-66790000D01*
X71410000Y-63566467D02*
X71410000Y-57000000D01*
X70966453Y-67990000D02*
X71410000Y-67990000D01*
X71410000Y-68590000D02*
X70966453Y-68590000D01*
X71410000Y-74590000D02*
X70966453Y-74590000D01*
X70966453Y-73990000D02*
X71410000Y-73990000D01*
X90250000Y-95500000D02*
X71410000Y-76660000D01*
X70966453Y-70390000D02*
X71410000Y-70390000D01*
X70966453Y-69190000D02*
X71410000Y-69190000D01*
X71410000Y-71590000D02*
X71853547Y-71590000D01*
X71410000Y-66190000D02*
X70966453Y-66190000D01*
X71410000Y-72790000D02*
X71853547Y-72790000D01*
X70966453Y-66790000D02*
X71410000Y-66790000D01*
X71410000Y-70990000D02*
X70966453Y-70990000D01*
X71853547Y-74590000D02*
X71410000Y-74590000D01*
X71853547Y-67390000D02*
X71410000Y-67390000D01*
X70966453Y-72790000D02*
X71410000Y-72790000D01*
X71410000Y-69790000D02*
X70966453Y-69790000D01*
X70966453Y-65590000D02*
X71110000Y-65590000D01*
X71853547Y-66190000D02*
X71410000Y-66190000D01*
X71410000Y-76660000D02*
X71410000Y-76090000D01*
X71410000Y-67990000D02*
X71853547Y-67990000D01*
X71410000Y-69190000D02*
X71853547Y-69190000D01*
X71853547Y-73390000D02*
X71410000Y-73390000D01*
X72153547Y-73690000D02*
G75*
G02*
X71853547Y-73990000I-300000J0D01*
G01*
X70966453Y-66790000D02*
G75*
G03*
X70666453Y-67090000I0J-300000D01*
G01*
X70966453Y-70390000D02*
G75*
G03*
X70666453Y-70690000I0J-300000D01*
G01*
X72153547Y-72490000D02*
G75*
G02*
X71853547Y-72790000I-300000J0D01*
G01*
X70966453Y-73990000D02*
G75*
G03*
X70666453Y-74290000I0J-300000D01*
G01*
X70666453Y-68290000D02*
G75*
G03*
X70966453Y-68590000I300000J0D01*
G01*
X72153547Y-66490000D02*
G75*
G02*
X71853547Y-66790000I-300000J0D01*
G01*
X70666453Y-74290000D02*
G75*
G03*
X70966453Y-74590000I300000J0D01*
G01*
X71853547Y-66190000D02*
G75*
G02*
X72153547Y-66490000I0J-300000D01*
G01*
X71853547Y-68590000D02*
G75*
G02*
X72153547Y-68890000I0J-300000D01*
G01*
X70966453Y-75190000D02*
G75*
G03*
X70666453Y-75490000I0J-300000D01*
G01*
X72153547Y-74890000D02*
G75*
G02*
X71853547Y-75190000I-300000J0D01*
G01*
X71853547Y-73390000D02*
G75*
G02*
X72153547Y-73690000I0J-300000D01*
G01*
X70666453Y-71890000D02*
G75*
G03*
X70966453Y-72190000I300000J0D01*
G01*
X70666453Y-73090000D02*
G75*
G03*
X70966453Y-73390000I300000J0D01*
G01*
X70666453Y-69490000D02*
G75*
G03*
X70966453Y-69790000I300000J0D01*
G01*
X72153547Y-67690000D02*
G75*
G02*
X71853547Y-67990000I-300000J0D01*
G01*
X72153547Y-71290000D02*
G75*
G02*
X71853547Y-71590000I-300000J0D01*
G01*
X70666453Y-70690000D02*
G75*
G03*
X70966453Y-70990000I300000J0D01*
G01*
X70966453Y-69190000D02*
G75*
G03*
X70666453Y-69490000I0J-300000D01*
G01*
X71853547Y-70990000D02*
G75*
G02*
X72153547Y-71290000I0J-300000D01*
G01*
X71410000Y-65290000D02*
G75*
G02*
X71110000Y-65590000I-300000J0D01*
G01*
X71853547Y-69790000D02*
G75*
G02*
X72153547Y-70090000I0J-300000D01*
G01*
X71110000Y-75790000D02*
G75*
G02*
X71410000Y-76090000I0J-300000D01*
G01*
X71853547Y-67390000D02*
G75*
G02*
X72153547Y-67690000I0J-300000D01*
G01*
X70966453Y-67990000D02*
G75*
G03*
X70666453Y-68290000I0J-300000D01*
G01*
X70666453Y-67090000D02*
G75*
G03*
X70966453Y-67390000I300000J0D01*
G01*
X70966453Y-65590000D02*
G75*
G03*
X70666453Y-65890000I0J-300000D01*
G01*
X72153547Y-68890000D02*
G75*
G02*
X71853547Y-69190000I-300000J0D01*
G01*
X70666453Y-65890000D02*
G75*
G03*
X70966453Y-66190000I300000J0D01*
G01*
X71853547Y-74590000D02*
G75*
G02*
X72153547Y-74890000I0J-300000D01*
G01*
X70966453Y-72790000D02*
G75*
G03*
X70666453Y-73090000I0J-300000D01*
G01*
X72153547Y-70090000D02*
G75*
G02*
X71853547Y-70390000I-300000J0D01*
G01*
X70966453Y-71590000D02*
G75*
G03*
X70666453Y-71890000I0J-300000D01*
G01*
X70666453Y-75490000D02*
G75*
G03*
X70966453Y-75790000I300000J0D01*
G01*
X71853547Y-72190000D02*
G75*
G02*
X72153547Y-72490000I0J-300000D01*
G01*
%TO.N,DCMI_D4*%
X73950000Y-67950000D02*
X74400000Y-67950000D01*
X74400000Y-67350000D02*
X73950000Y-67350000D01*
X73950000Y-70950000D02*
X73500000Y-70950000D01*
X73500000Y-70350000D02*
X73950000Y-70350000D01*
X73950000Y-76700000D02*
X73950000Y-76050000D01*
X73500000Y-67950000D02*
X73950000Y-67950000D01*
X73950000Y-74550000D02*
X73500000Y-74550000D01*
X73950000Y-70350000D02*
X74400000Y-70350000D01*
X73950000Y-66150000D02*
X73500000Y-66150000D01*
X74400000Y-68550000D02*
X73950000Y-68550000D01*
X73500000Y-66750000D02*
X73950000Y-66750000D01*
X73500000Y-72750000D02*
X73950000Y-72750000D01*
X73950000Y-65250000D02*
X73950000Y-64823165D01*
X74400000Y-70950000D02*
X73950000Y-70950000D01*
X73500000Y-65550000D02*
X73650000Y-65550000D01*
X73950000Y-72150000D02*
X73500000Y-72150000D01*
X73950000Y-71550000D02*
X74400000Y-71550000D01*
X73950000Y-69150000D02*
X74400000Y-69150000D01*
X73950000Y-69750000D02*
X73500000Y-69750000D01*
X73500000Y-73950000D02*
X73950000Y-73950000D01*
X73650000Y-75750000D02*
X73500000Y-75750000D01*
X74400000Y-73350000D02*
X73950000Y-73350000D01*
X73950000Y-73950000D02*
X74400000Y-73950000D01*
X73500000Y-71550000D02*
X73950000Y-71550000D01*
X73500000Y-75150000D02*
X73650000Y-75150000D01*
X73950000Y-67350000D02*
X73500000Y-67350000D01*
X74400000Y-74550000D02*
X73950000Y-74550000D01*
X73950000Y-66750000D02*
X74400000Y-66750000D01*
X85500000Y-88250000D02*
X73950000Y-76700000D01*
X73950000Y-73350000D02*
X73500000Y-73350000D01*
X74400000Y-66150000D02*
X73950000Y-66150000D01*
X73950000Y-68550000D02*
X73500000Y-68550000D01*
X73650000Y-75150000D02*
X74400000Y-75150000D01*
X73500000Y-69150000D02*
X73950000Y-69150000D01*
X73950000Y-64823165D02*
X73950000Y-57000000D01*
X74400000Y-69750000D02*
X73950000Y-69750000D01*
X73950000Y-72750000D02*
X74400000Y-72750000D01*
X74400000Y-72150000D02*
X73950000Y-72150000D01*
X73200000Y-67050000D02*
G75*
G03*
X73500000Y-67350000I300000J0D01*
G01*
X74400000Y-70950000D02*
G75*
G02*
X74700000Y-71250000I0J-300000D01*
G01*
X73950000Y-65250000D02*
G75*
G02*
X73650000Y-65550000I-300000J0D01*
G01*
X74700000Y-67650000D02*
G75*
G02*
X74400000Y-67950000I-300000J0D01*
G01*
X74700000Y-68850000D02*
G75*
G02*
X74400000Y-69150000I-300000J0D01*
G01*
X74700000Y-74850000D02*
G75*
G02*
X74400000Y-75150000I-300000J0D01*
G01*
X74700000Y-73650000D02*
G75*
G02*
X74400000Y-73950000I-300000J0D01*
G01*
X74400000Y-68550000D02*
G75*
G02*
X74700000Y-68850000I0J-300000D01*
G01*
X73500000Y-72750000D02*
G75*
G03*
X73200000Y-73050000I0J-300000D01*
G01*
X74700000Y-71250000D02*
G75*
G02*
X74400000Y-71550000I-300000J0D01*
G01*
X73200000Y-71850000D02*
G75*
G03*
X73500000Y-72150000I300000J0D01*
G01*
X73200000Y-75450000D02*
G75*
G03*
X73500000Y-75750000I300000J0D01*
G01*
X74400000Y-72150000D02*
G75*
G02*
X74700000Y-72450000I0J-300000D01*
G01*
X73500000Y-75150000D02*
G75*
G03*
X73200000Y-75450000I0J-300000D01*
G01*
X74400000Y-69750000D02*
G75*
G02*
X74700000Y-70050000I0J-300000D01*
G01*
X74700000Y-66450000D02*
G75*
G02*
X74400000Y-66750000I-300000J0D01*
G01*
X73200000Y-65850000D02*
G75*
G03*
X73500000Y-66150000I300000J0D01*
G01*
X74400000Y-67350000D02*
G75*
G02*
X74700000Y-67650000I0J-300000D01*
G01*
X74400000Y-74550000D02*
G75*
G02*
X74700000Y-74850000I0J-300000D01*
G01*
X73200000Y-68250000D02*
G75*
G03*
X73500000Y-68550000I300000J0D01*
G01*
X74400000Y-73350000D02*
G75*
G02*
X74700000Y-73650000I0J-300000D01*
G01*
X73500000Y-66750000D02*
G75*
G03*
X73200000Y-67050000I0J-300000D01*
G01*
X73200000Y-73050000D02*
G75*
G03*
X73500000Y-73350000I300000J0D01*
G01*
X73200000Y-70650000D02*
G75*
G03*
X73500000Y-70950000I300000J0D01*
G01*
X73500000Y-73950000D02*
G75*
G03*
X73200000Y-74250000I0J-300000D01*
G01*
X73500000Y-69150000D02*
G75*
G03*
X73200000Y-69450000I0J-300000D01*
G01*
X74700000Y-72450000D02*
G75*
G02*
X74400000Y-72750000I-300000J0D01*
G01*
X73200000Y-74250000D02*
G75*
G03*
X73500000Y-74550000I300000J0D01*
G01*
X73500000Y-67950000D02*
G75*
G03*
X73200000Y-68250000I0J-300000D01*
G01*
X74700000Y-70050000D02*
G75*
G02*
X74400000Y-70350000I-300000J0D01*
G01*
X73500000Y-71550000D02*
G75*
G03*
X73200000Y-71850000I0J-300000D01*
G01*
X73200000Y-69450000D02*
G75*
G03*
X73500000Y-69750000I300000J0D01*
G01*
X73500000Y-70350000D02*
G75*
G03*
X73200000Y-70650000I0J-300000D01*
G01*
X74400000Y-66150000D02*
G75*
G02*
X74700000Y-66450000I0J-300000D01*
G01*
X73650000Y-75750000D02*
G75*
G02*
X73950000Y-76050000I0J-300000D01*
G01*
X73500000Y-65550000D02*
G75*
G03*
X73200000Y-65850000I0J-300000D01*
G01*
%TO.N,DCMI_D3*%
X75650000Y-60550000D02*
X75200000Y-60550000D01*
X75500000Y-64750000D02*
X75650000Y-64750000D01*
X75200000Y-58450000D02*
X75200000Y-58018605D01*
X75200000Y-59950000D02*
X75650000Y-59950000D01*
X74750000Y-63550000D02*
X75200000Y-63550000D01*
X75200000Y-59350000D02*
X74750000Y-59350000D01*
X75200000Y-63550000D02*
X75650000Y-63550000D01*
X74750000Y-59950000D02*
X75200000Y-59950000D01*
X75200000Y-62950000D02*
X74750000Y-62950000D01*
X74750000Y-58750000D02*
X74900000Y-58750000D01*
X75200000Y-61750000D02*
X74750000Y-61750000D01*
X75650000Y-62950000D02*
X75200000Y-62950000D01*
X75200000Y-61150000D02*
X75650000Y-61150000D01*
X75200000Y-76700000D02*
X75200000Y-65050000D01*
X75200000Y-62350000D02*
X75650000Y-62350000D01*
X75650000Y-64150000D02*
X75500000Y-64150000D01*
X75200000Y-55750000D02*
X76490000Y-54460000D01*
X74750000Y-62350000D02*
X75200000Y-62350000D01*
X75200000Y-60550000D02*
X74750000Y-60550000D01*
X75650000Y-61750000D02*
X75200000Y-61750000D01*
X75650000Y-59350000D02*
X75200000Y-59350000D01*
X74750000Y-61150000D02*
X75200000Y-61150000D01*
X75500000Y-64150000D02*
X74750000Y-64150000D01*
X75200000Y-58018605D02*
X75200000Y-55750000D01*
X87750000Y-89250000D02*
X75200000Y-76700000D01*
X75500000Y-64750000D02*
G75*
G03*
X75200000Y-65050000I0J-300000D01*
G01*
X75650000Y-59350000D02*
G75*
G02*
X75950000Y-59650000I0J-300000D01*
G01*
X75650000Y-62950000D02*
G75*
G02*
X75950000Y-63250000I0J-300000D01*
G01*
X74450000Y-59050000D02*
G75*
G03*
X74750000Y-59350000I300000J0D01*
G01*
X75650000Y-60550000D02*
G75*
G02*
X75950000Y-60850000I0J-300000D01*
G01*
X74750000Y-58750000D02*
G75*
G03*
X74450000Y-59050000I0J-300000D01*
G01*
X75950000Y-62050000D02*
G75*
G02*
X75650000Y-62350000I-300000J0D01*
G01*
X75950000Y-59650000D02*
G75*
G02*
X75650000Y-59950000I-300000J0D01*
G01*
X75200000Y-58450000D02*
G75*
G02*
X74900000Y-58750000I-300000J0D01*
G01*
X74750000Y-62350000D02*
G75*
G03*
X74450000Y-62650000I0J-300000D01*
G01*
X74450000Y-63850000D02*
G75*
G03*
X74750000Y-64150000I300000J0D01*
G01*
X74750000Y-59950000D02*
G75*
G03*
X74450000Y-60250000I0J-300000D01*
G01*
X75650000Y-64150000D02*
G75*
G02*
X75950000Y-64450000I0J-300000D01*
G01*
X74450000Y-61450000D02*
G75*
G03*
X74750000Y-61750000I300000J0D01*
G01*
X74750000Y-61150000D02*
G75*
G03*
X74450000Y-61450000I0J-300000D01*
G01*
X75650000Y-61750000D02*
G75*
G02*
X75950000Y-62050000I0J-300000D01*
G01*
X74750000Y-63550000D02*
G75*
G03*
X74450000Y-63850000I0J-300000D01*
G01*
X75950000Y-63250000D02*
G75*
G02*
X75650000Y-63550000I-300000J0D01*
G01*
X74450000Y-60250000D02*
G75*
G03*
X74750000Y-60550000I300000J0D01*
G01*
X75950000Y-60850000D02*
G75*
G02*
X75650000Y-61150000I-300000J0D01*
G01*
X75950000Y-64450000D02*
G75*
G02*
X75650000Y-64750000I-300000J0D01*
G01*
X74450000Y-62650000D02*
G75*
G03*
X74750000Y-62950000I300000J0D01*
G01*
%TO.N,DCMI_D2*%
X76083340Y-73890000D02*
X76490000Y-73890000D01*
X76490000Y-74490000D02*
X76083340Y-74490000D01*
X76490000Y-76740000D02*
X76490000Y-75990000D01*
X76490000Y-73290000D02*
X76083340Y-73290000D01*
X76083340Y-75090000D02*
X76190000Y-75090000D01*
X76490000Y-73890000D02*
X76896660Y-73890000D01*
X76896660Y-73290000D02*
X76490000Y-73290000D01*
X76490000Y-72390000D02*
X76490000Y-63658420D01*
X76083340Y-72690000D02*
X76190000Y-72690000D01*
X99250000Y-99500000D02*
X76490000Y-76740000D01*
X76896660Y-74490000D02*
X76490000Y-74490000D01*
X76190000Y-75690000D02*
X76083340Y-75690000D01*
X76490000Y-63658420D02*
X76490000Y-57000000D01*
X76190000Y-75090000D02*
X76896660Y-75090000D01*
X76896660Y-73290000D02*
G75*
G02*
X77196660Y-73590000I0J-300000D01*
G01*
X77196660Y-73590000D02*
G75*
G02*
X76896660Y-73890000I-300000J0D01*
G01*
X76490000Y-72390000D02*
G75*
G02*
X76190000Y-72690000I-300000J0D01*
G01*
X76083340Y-72690000D02*
G75*
G03*
X75783340Y-72990000I0J-300000D01*
G01*
X76896660Y-74490000D02*
G75*
G02*
X77196660Y-74790000I0J-300000D01*
G01*
X76190000Y-75690000D02*
G75*
G02*
X76490000Y-75990000I0J-300000D01*
G01*
X75783340Y-72990000D02*
G75*
G03*
X76083340Y-73290000I300000J0D01*
G01*
X77196660Y-74790000D02*
G75*
G02*
X76896660Y-75090000I-300000J0D01*
G01*
X75783340Y-75390000D02*
G75*
G03*
X76083340Y-75690000I300000J0D01*
G01*
X76083340Y-73890000D02*
G75*
G03*
X75783340Y-74190000I0J-300000D01*
G01*
X76083340Y-75090000D02*
G75*
G03*
X75783340Y-75390000I0J-300000D01*
G01*
X75783340Y-74190000D02*
G75*
G03*
X76083340Y-74490000I300000J0D01*
G01*
%TO.N,DCMI_D1*%
X77300000Y-71600000D02*
X77450000Y-71600000D01*
X77750000Y-70100000D02*
X77750000Y-64853816D01*
X77750000Y-55740000D02*
X79030000Y-54460000D01*
X77750000Y-64853816D02*
X77750000Y-55740000D01*
X77750000Y-76750000D02*
X77750000Y-72500000D01*
X78200000Y-71000000D02*
X77750000Y-71000000D01*
X77450000Y-72200000D02*
X77300000Y-72200000D01*
X77750000Y-71000000D02*
X77300000Y-71000000D01*
X77450000Y-71600000D02*
X78200000Y-71600000D01*
X101000000Y-100000000D02*
X77750000Y-76750000D01*
X77300000Y-70400000D02*
X77450000Y-70400000D01*
X77450000Y-72200000D02*
G75*
G02*
X77750000Y-72500000I0J-300000D01*
G01*
X78200000Y-71000000D02*
G75*
G02*
X78500000Y-71300000I0J-300000D01*
G01*
X77000000Y-70700000D02*
G75*
G03*
X77300000Y-71000000I300000J0D01*
G01*
X77300000Y-71600000D02*
G75*
G03*
X77000000Y-71900000I0J-300000D01*
G01*
X77750000Y-70100000D02*
G75*
G02*
X77450000Y-70400000I-300000J0D01*
G01*
X77300000Y-70400000D02*
G75*
G03*
X77000000Y-70700000I0J-300000D01*
G01*
X77000000Y-71900000D02*
G75*
G03*
X77300000Y-72200000I300000J0D01*
G01*
X78500000Y-71300000D02*
G75*
G02*
X78200000Y-71600000I-300000J0D01*
G01*
%TO.N,DCMI_D0*%
X78638286Y-65530000D02*
X78730000Y-65530000D01*
X79030000Y-66730000D02*
X79421714Y-66730000D01*
X78638286Y-66730000D02*
X79030000Y-66730000D01*
X79030000Y-67930000D02*
X79421714Y-67930000D01*
X79421714Y-68530000D02*
X79030000Y-68530000D01*
X79030000Y-68530000D02*
X78638286Y-68530000D01*
X79030000Y-67330000D02*
X78638286Y-67330000D01*
X79421714Y-67330000D02*
X79030000Y-67330000D01*
X102750000Y-100500000D02*
X79030000Y-76780000D01*
X79030000Y-63750374D02*
X79030000Y-57000000D01*
X78638286Y-67930000D02*
X79030000Y-67930000D01*
X79030000Y-65230000D02*
X79030000Y-63750374D01*
X78730000Y-69730000D02*
X78638286Y-69730000D01*
X78638286Y-69130000D02*
X78730000Y-69130000D01*
X79030000Y-66130000D02*
X78638286Y-66130000D01*
X79421714Y-66130000D02*
X79030000Y-66130000D01*
X78730000Y-69130000D02*
X79421714Y-69130000D01*
X79030000Y-76780000D02*
X79030000Y-70030000D01*
X78638286Y-67930000D02*
G75*
G03*
X78338286Y-68230000I0J-300000D01*
G01*
X78638286Y-69130000D02*
G75*
G03*
X78338286Y-69430000I0J-300000D01*
G01*
X78338286Y-69430000D02*
G75*
G03*
X78638286Y-69730000I300000J0D01*
G01*
X79721714Y-68830000D02*
G75*
G02*
X79421714Y-69130000I-300000J0D01*
G01*
X79721714Y-67630000D02*
G75*
G02*
X79421714Y-67930000I-300000J0D01*
G01*
X79421714Y-68530000D02*
G75*
G02*
X79721714Y-68830000I0J-300000D01*
G01*
X78730000Y-69730000D02*
G75*
G02*
X79030000Y-70030000I0J-300000D01*
G01*
X79421714Y-66130000D02*
G75*
G02*
X79721714Y-66430000I0J-300000D01*
G01*
X78338286Y-67030000D02*
G75*
G03*
X78638286Y-67330000I300000J0D01*
G01*
X78638286Y-66730000D02*
G75*
G03*
X78338286Y-67030000I0J-300000D01*
G01*
X79721714Y-66430000D02*
G75*
G02*
X79421714Y-66730000I-300000J0D01*
G01*
X79421714Y-67330000D02*
G75*
G02*
X79721714Y-67630000I0J-300000D01*
G01*
X78638286Y-65530000D02*
G75*
G03*
X78338286Y-65830000I0J-300000D01*
G01*
X79030000Y-65230000D02*
G75*
G02*
X78730000Y-65530000I-300000J0D01*
G01*
X78338286Y-68230000D02*
G75*
G03*
X78638286Y-68530000I300000J0D01*
G01*
X78338286Y-65830000D02*
G75*
G03*
X78638286Y-66130000I300000J0D01*
G01*
%TO.N,DCMI_RST*%
X80000000Y-64050000D02*
X80653276Y-64050000D01*
X80300000Y-63450000D02*
X79946724Y-63450000D01*
X106000000Y-102500000D02*
X80300000Y-76800000D01*
X80000000Y-64650000D02*
X79946724Y-64650000D01*
X80653276Y-62250000D02*
X80300000Y-62250000D01*
X80300000Y-58876838D02*
X80300000Y-55730000D01*
X79946724Y-64050000D02*
X80000000Y-64050000D01*
X80653276Y-63450000D02*
X80300000Y-63450000D01*
X108733694Y-102500000D02*
X106000000Y-102500000D01*
X80300000Y-62250000D02*
X79946724Y-62250000D01*
X80300000Y-61350000D02*
X80300000Y-58876838D01*
X79946724Y-62850000D02*
X80300000Y-62850000D01*
X80300000Y-62850000D02*
X80653276Y-62850000D01*
X79946724Y-61650000D02*
X80000000Y-61650000D01*
X80300000Y-55730000D02*
X81570000Y-54460000D01*
X80300000Y-76800000D02*
X80300000Y-64950000D01*
X79946724Y-61650000D02*
G75*
G03*
X79646724Y-61950000I0J-300000D01*
G01*
X80653276Y-62250000D02*
G75*
G02*
X80953276Y-62550000I0J-300000D01*
G01*
X79946724Y-62850000D02*
G75*
G03*
X79646724Y-63150000I0J-300000D01*
G01*
X80000000Y-64650000D02*
G75*
G02*
X80300000Y-64950000I0J-300000D01*
G01*
X80953276Y-62550000D02*
G75*
G02*
X80653276Y-62850000I-300000J0D01*
G01*
X79646724Y-64350000D02*
G75*
G03*
X79946724Y-64650000I300000J0D01*
G01*
X79946724Y-64050000D02*
G75*
G03*
X79646724Y-64350000I0J-300000D01*
G01*
X80953276Y-63750000D02*
G75*
G02*
X80653276Y-64050000I-300000J0D01*
G01*
X79646724Y-61950000D02*
G75*
G03*
X79946724Y-62250000I300000J0D01*
G01*
X80653276Y-63450000D02*
G75*
G02*
X80953276Y-63750000I0J-300000D01*
G01*
X80300000Y-61350000D02*
G75*
G02*
X80000000Y-61650000I-300000J0D01*
G01*
X79646724Y-63150000D02*
G75*
G03*
X79946724Y-63450000I300000J0D01*
G01*
%TO.N,DCMI_PWD*%
X81120000Y-58480000D02*
X81270000Y-58480000D01*
X81570000Y-57345552D02*
X81570000Y-57000000D01*
X81795000Y-65405000D02*
X81570000Y-65405000D01*
X81120000Y-66005000D02*
X81570000Y-66005000D01*
X82270000Y-60280000D02*
X81870000Y-60280000D01*
X81870000Y-60880000D02*
X82270000Y-60880000D01*
X81120000Y-64805000D02*
X81270000Y-64805000D01*
X81570000Y-63935554D02*
X81570000Y-61180000D01*
X81570000Y-58180000D02*
X81570000Y-57345552D01*
X82270000Y-59080000D02*
X81570000Y-59080000D01*
X81570000Y-59680000D02*
X82270000Y-59680000D01*
X81870000Y-60280000D02*
X81120000Y-60280000D01*
X81570000Y-64505000D02*
X81570000Y-63935554D01*
X81120000Y-59680000D02*
X81570000Y-59680000D01*
X81570000Y-59080000D02*
X81120000Y-59080000D01*
X81570000Y-76820000D02*
X81570000Y-67430000D01*
X81570000Y-66005000D02*
X81795000Y-66005000D01*
X108750000Y-101500000D02*
X106250000Y-101500000D01*
X82020000Y-65780000D02*
X82020000Y-65630000D01*
X81570000Y-66605000D02*
X81120000Y-66605000D01*
X82020000Y-66980000D02*
X82020000Y-66830000D01*
X81795000Y-66605000D02*
X81570000Y-66605000D01*
X106250000Y-101500000D02*
X81570000Y-76820000D01*
X81570000Y-65405000D02*
X81120000Y-65405000D01*
X81795000Y-67205000D02*
G75*
G03*
X81570000Y-67430000I0J-225000D01*
G01*
X81120000Y-59680000D02*
G75*
G03*
X80820000Y-59980000I0J-300000D01*
G01*
X80820000Y-65105000D02*
G75*
G03*
X81120000Y-65405000I300000J0D01*
G01*
X81570000Y-58180000D02*
G75*
G02*
X81270000Y-58480000I-300000J0D01*
G01*
X81795000Y-66605000D02*
G75*
G02*
X82020000Y-66830000I0J-225000D01*
G01*
X81120000Y-66005000D02*
G75*
G03*
X80820000Y-66305000I0J-300000D01*
G01*
X80820000Y-66305000D02*
G75*
G03*
X81120000Y-66605000I300000J0D01*
G01*
X80820000Y-59980000D02*
G75*
G03*
X81120000Y-60280000I300000J0D01*
G01*
X82570000Y-59380000D02*
G75*
G02*
X82270000Y-59680000I-300000J0D01*
G01*
X82020000Y-66980000D02*
G75*
G02*
X81795000Y-67205000I-225000J0D01*
G01*
X81120000Y-58480000D02*
G75*
G03*
X80820000Y-58780000I0J-300000D01*
G01*
X81870000Y-60880000D02*
G75*
G03*
X81570000Y-61180000I0J-300000D01*
G01*
X82270000Y-60280000D02*
G75*
G02*
X82570000Y-60580000I0J-300000D01*
G01*
X80820000Y-58780000D02*
G75*
G03*
X81120000Y-59080000I300000J0D01*
G01*
X82270000Y-59080000D02*
G75*
G02*
X82570000Y-59380000I0J-300000D01*
G01*
X82570000Y-60580000D02*
G75*
G02*
X82270000Y-60880000I-300000J0D01*
G01*
X82020000Y-65780000D02*
G75*
G02*
X81795000Y-66005000I-225000J0D01*
G01*
X81570000Y-64505000D02*
G75*
G02*
X81270000Y-64805000I-300000J0D01*
G01*
X81120000Y-64805000D02*
G75*
G03*
X80820000Y-65105000I0J-300000D01*
G01*
X81795000Y-65405000D02*
G75*
G02*
X82020000Y-65630000I0J-225000D01*
G01*
%TO.N,SPI3_MOSI*%
X122990000Y-56000000D02*
X121450000Y-54460000D01*
X136690000Y-54460000D02*
X135150000Y-56000000D01*
X135150000Y-56000000D02*
X122990000Y-56000000D01*
%TO.N,SPI3_MISO*%
X130530000Y-53000000D02*
X129070000Y-54460000D01*
X139230000Y-54460000D02*
X137770000Y-53000000D01*
X137770000Y-53000000D02*
X130530000Y-53000000D01*
%TO.N,SPI1_SCK*%
X96750000Y-86250000D02*
X92865000Y-82365000D01*
X92865000Y-82365000D02*
X92500000Y-82365000D01*
%TO.N,/SIM_DATA_Pro*%
X98175000Y-135375000D02*
X97150000Y-134350000D01*
X98175000Y-136325000D02*
X98175000Y-135375000D01*
%TO.N,CAN_H*%
X61525000Y-85750000D02*
X61525000Y-70250000D01*
%TO.N,CAN_L*%
X62525000Y-85750000D02*
X62525000Y-66000000D01*
%TO.N,PWRKEY*%
X105250000Y-121000000D02*
X87000000Y-121000000D01*
X87000000Y-121000000D02*
X83750000Y-117750000D01*
%TO.N,SWDIO*%
X130000000Y-70000000D02*
X133500000Y-66500000D01*
%TO.N,SIM_RTSM*%
X122000000Y-114750000D02*
X122000000Y-115250000D01*
X122000000Y-115250000D02*
X122000000Y-115500000D01*
X122000000Y-115500000D02*
X120000000Y-117500000D01*
%TO.N,SIM_DTR*%
X119000000Y-107500000D02*
X116750000Y-105250000D01*
X109000000Y-105250000D02*
X108750000Y-105500000D01*
X116750000Y-105250000D02*
X109000000Y-105250000D01*
%TO.N,SIM_DTRM*%
X124000000Y-114750000D02*
X124000000Y-117500000D01*
%TO.N,SIM_INT*%
X109000000Y-107750000D02*
X108750000Y-107500000D01*
X118500000Y-108250000D02*
X118000000Y-107750000D01*
X118000000Y-107750000D02*
X109000000Y-107750000D01*
%TO.N,WIFI_EN*%
X100250000Y-89500000D02*
X100250000Y-76000000D01*
X100250000Y-76000000D02*
X90000000Y-65750000D01*
%TO.N,WIFI_TX*%
X102250000Y-65500000D02*
X102250000Y-93250000D01*
X102250000Y-93250000D02*
X102750000Y-93750000D01*
X103000000Y-64750000D02*
X102250000Y-65500000D01*
%TO.N,WIFI_RX*%
X103000000Y-62750000D02*
X101250000Y-64500000D01*
X101250000Y-64500000D02*
X101250000Y-93750000D01*
%TO.N,Gyro_INT*%
X85950000Y-105550000D02*
X73800000Y-105550000D01*
X73800000Y-105550000D02*
X71500000Y-103250000D01*
X87000000Y-104500000D02*
X85950000Y-105550000D01*
%TO.N,Touch_INT*%
X141540000Y-54460000D02*
X141770000Y-54460000D01*
X108750000Y-87250000D02*
X141540000Y-54460000D01*
X108750000Y-97250000D02*
X108750000Y-87250000D01*
%TO.N,PF8*%
X77765000Y-104280000D02*
X85720000Y-104280000D01*
X85720000Y-104280000D02*
X86000000Y-104000000D01*
%TO.N,PF7*%
X84500000Y-103000000D02*
X85000000Y-103500000D01*
X75225000Y-101740000D02*
X76485000Y-103000000D01*
X76485000Y-103000000D02*
X84500000Y-103000000D01*
%TO.N,BOOT1*%
X94500000Y-117500000D02*
X87250000Y-117500000D01*
D27*
%TO.N,unconnected-(J15-Pad0)*%
X54525000Y-65170000D02*
X55685000Y-64010000D01*
X54525000Y-87850000D02*
X54525000Y-65170000D01*
X55685000Y-89010000D02*
X54525000Y-87850000D01*
D28*
%TO.N,CAN_TX*%
X82750000Y-99000000D02*
X87956415Y-99000000D01*
X75750000Y-92000000D02*
X82750000Y-99000000D01*
X87956415Y-99000000D02*
X88956415Y-100000000D01*
X60525000Y-92000000D02*
X75750000Y-92000000D01*
X88956415Y-100000000D02*
X93750000Y-100000000D01*
X93750000Y-100000000D02*
X94250000Y-99500000D01*
%TO.N,CAN_RX*%
X87500000Y-99750000D02*
X82706416Y-99750000D01*
X82706416Y-99750000D02*
X76426416Y-93470000D01*
X94250000Y-100750000D02*
X88500000Y-100750000D01*
X88500000Y-100750000D02*
X87500000Y-99750000D01*
X76426416Y-93470000D02*
X65025000Y-93470000D01*
X95500000Y-99500000D02*
X94250000Y-100750000D01*
%TD*%
M02*
