M48
; DRILL file {KiCad (6.0.0)} date Wed Jan 12 18:34:34 2022
; FORMAT={-:-/ absolute / inch / decimal}
; #@! TF.CreationDate,2022-01-12T18:34:34+03:00
; #@! TF.GenerationSoftware,Kicad,Pcbnew,(6.0.0)
; #@! TF.FileFunction,Plated,1,4,PTH
FMAT,2
INCH
; #@! TA.AperFunction,Plated,PTH,ViaDrill
T1C0.0118
; #@! TA.AperFunction,Plated,PTH,ViaDrill
T2C0.0157
; #@! TA.AperFunction,Plated,PTH,ViaDrill
T3C0.0197
; #@! TA.AperFunction,Plated,PTH,ComponentDrill
T4C0.0197
; #@! TA.AperFunction,Plated,PTH,ComponentDrill
T5C0.0217
; #@! TA.AperFunction,Plated,PTH,ComponentDrill
T6C0.0394
; #@! TA.AperFunction,Plated,PTH,ComponentDrill
T7C0.0984
; #@! TA.AperFunction,Plated,PTH,ComponentDrill
T8C0.1260
%
G90
G05
T1
X2.2131Y-4.1535
X2.2131Y-5.5709
X2.2638Y-3.9665
X2.2638Y-5.3346
X2.3041Y-3.7303
X2.3632Y-2.8346
X2.3829Y-3.622
X2.3917Y-5.2559
X2.3917Y-5.2953
X2.3917Y-5.3543
X2.3917Y-5.3937
X2.3927Y-3.7598
X2.4222Y-2.7657
X2.4222Y-3.2382
X2.4222Y-3.376
X2.4616Y-2.5984
X2.4616Y-3.376
X2.4803Y-2.4409
X2.4902Y-5.2756
X2.4911Y-3.7598
X2.5108Y-2.8346
X2.5108Y-2.9921
X2.5431Y-5.7813
X2.5492Y-2.4409
X2.5492Y-5.3543
X2.5492Y-5.3937
X2.5591Y-3.8327
X2.5591Y-4.0453
X2.5591Y-4.128
X2.56Y-3.6799
X2.6476Y-5.3543
X2.6575Y-5.4626
X2.6673Y-4.0453
X2.6969Y-4.6014
X2.6969Y-4.6447
X2.6969Y-4.7313
X2.6969Y-4.7746
X2.7067Y-5.2559
X2.7067Y-5.2953
X2.7854Y-3.6516
X2.8051Y-5.3937
X2.815Y-3.4941
X2.815Y-3.5236
X2.815Y-3.6516
X2.815Y-4.065
X2.8524Y-4.185
X2.8642Y-3.7205
X2.874Y-4.3012
X2.8937Y-4.2717
X2.9232Y-3.4449
X2.9724Y-3.75
X3.0217Y-3.4646
X3.1102Y-3.6319
X3.1201Y-3.7205
X3.1384Y-5.6778
X3.1594Y-4.2421
X3.1608Y-5.7002
X3.1791Y-3.7008
X3.189Y-4.2421
X3.189Y-4.688
X3.2087Y-3.7008
X3.2127Y-4.4351
X3.2382Y-3.7008
X3.2579Y-4.8031
X3.2677Y-3.7008
X3.2874Y-3.8583
X3.2972Y-4.6358
X3.3071Y-4.0256
X3.3169Y-4.3504
X3.3169Y-4.3898
X3.3268Y-4.3102
X3.3366Y-4.0256
X3.3465Y-3.8583
X3.3465Y-4.0748
X3.3563Y-4.3102
X3.3661Y-3.4744
X3.3858Y-3.8583
X3.3858Y-3.9961
X3.3858Y-4.0354
X3.3858Y-4.0945
X3.3858Y-4.252
X3.4252Y-3.8583
X3.4252Y-4.1142
X3.4252Y-4.252
X3.4252Y-4.498
X3.435Y-4.626
X3.4547Y-3.5138
X3.4547Y-4.4677
X3.4744Y-4.8228
X3.4941Y-3.5441
X3.5039Y-3.1693
X3.5039Y-3.2677
X3.5394Y-3.6181
X3.5433Y-2.5886
X3.5531Y-3.7598
X3.5531Y-3.7992
X3.5531Y-4.2323
X3.5531Y-4.2717
X3.563Y-3.9961
X3.563Y-4.5276
X3.563Y-4.8425
X3.622Y-3.8386
X3.622Y-3.8976
X3.6417Y-3.2427
X3.6417Y-3.3427
X3.6417Y-4.5276
X3.6417Y-4.8425
X3.6652Y-5.3937
X3.7106Y-3.9173
X3.7205Y-4.626
X3.7402Y-3.1299
X3.7598Y-3.9173
X3.7598Y-5.3937
X3.7795Y-5.315
X3.8091Y-3.3957
X3.8091Y-3.8681
X3.8189Y-4.5472
X3.8189Y-4.5866
X3.8197Y-3.4941
X3.8248Y-5.2894
X3.8386Y-3.1927
X3.8575Y-3.4941
X3.8652Y-5.3671
X3.8976Y-4.5472
X3.8976Y-4.5866
X3.9075Y-3.9173
X3.9173Y-5.3937
X3.9469Y-3.5236
X3.9575Y-5.128
X3.9764Y-3.937
X3.9862Y-3.6909
X4.0362Y-4.5669
X4.0453Y-3.6909
X4.0453Y-3.9567
X4.0551Y-2.4705
X4.0551Y-2.5492
X4.0551Y-3.4941
X4.0551Y-3.5335
X4.074Y-4.5669
X4.1437Y-4.7638
X4.1732Y-5.1614
X4.1732Y-5.193
X4.1732Y-5.6102
X4.1929Y-4.4193
X4.2709Y-4.5768
X4.2809Y-4.0354
X4.2815Y-3.8287
X4.2815Y-3.9961
X4.2815Y-4.1535
X4.2815Y-4.2323
X4.2815Y-4.8425
X4.2815Y-5.8071
X4.3307Y-5.7185
X4.3701Y-4.5087
X4.3701Y-4.5472
X4.3701Y-5.6102
X4.3709Y-3.6122
X4.4087Y-3.6122
X4.4094Y-3.9173
X4.439Y-3.7008
X4.4488Y-3.9173
X4.4488Y-4.177
X4.4488Y-4.2148
X4.4685Y-4.8425
X4.4685Y-5.2362
X4.4685Y-5.4724
X4.4783Y-3.9961
X4.5079Y-3.9961
X4.5079Y-4.3996
X4.5276Y-5.8051
X4.603Y-5.5675
X4.6063Y-4.5866
X4.6457Y-4.5177
X4.6457Y-4.626
X4.6654Y-4.2618
X4.6654Y-5.8169
X4.6752Y-3.8091
X4.685Y-4.2323
X4.685Y-5.5709
X4.7244Y-4.5177
X4.7244Y-4.626
X4.7244Y-5.5709
X4.7244Y-5.7185
X4.7638Y-5.5709
X4.8031Y-4.5177
X4.8031Y-4.626
X4.8031Y-4.7343
X4.8031Y-5.5709
X4.8228Y-3.622
X4.8228Y-3.6614
X4.8425Y-5.5709
X4.8819Y-4.5177
X4.8819Y-4.626
X4.8819Y-5.5709
X4.9114Y-3.7894
X4.9213Y-4.5866
X4.9213Y-5.5709
X4.9213Y-5.8051
X4.9292Y-3.6259
X4.9292Y-3.6575
X4.9606Y-5.5709
X4.9803Y-3.5421
X4.9803Y-3.7421
X5.0Y-5.5709
X5.0394Y-5.5709
X5.0492Y-3.4941
X5.0591Y-5.8268
X5.0787Y-5.5709
X5.1181Y-2.7559
X5.1181Y-5.7283
X5.1969Y-5.689
X5.2461Y-5.5709
X5.2559Y-2.6181
X5.2953Y-4.8425
X5.2953Y-4.8819
X5.2953Y-4.9606
X5.2953Y-5.0
X5.2953Y-5.3937
X5.2953Y-5.4724
X5.2953Y-5.5217
X5.315Y-5.815
X5.3346Y-4.3996
X5.3937Y-4.6654
X5.3937Y-5.6496
X5.4528Y-5.8268
X5.5512Y-3.5827
X5.561Y-3.1043
X5.561Y-3.1359
X5.5906Y-4.6654
X5.5906Y-5.6496
X5.7382Y-3.5827
X5.9154Y-3.7697
T2
X3.1693Y-4.5669
X3.2677Y-4.6654
X3.3661Y-3.0315
X3.3661Y-3.0709
X3.3661Y-3.1102
X4.1142Y-3.0315
X4.1142Y-3.0709
X4.1142Y-3.1102
X4.2717Y-5.0441
X5.1378Y-3.5433
X5.1378Y-3.7402
X5.1378Y-4.252
X5.1378Y-4.4488
X5.1772Y-3.5433
X5.1772Y-3.7402
X5.1772Y-4.252
X5.1772Y-4.4488
X5.1772Y-4.5276
X5.1772Y-4.5866
X5.2461Y-3.4449
X5.2756Y-3.3858
X5.3642Y-3.8189
X5.6142Y-3.3858
X5.6988Y-3.7008
X5.6988Y-3.7992
X5.6988Y-4.3602
X5.7579Y-3.7008
X5.7579Y-3.7992
T3
X3.2087Y-5.748
X3.2579Y-5.748
X3.7008Y-2.5787
X3.7008Y-2.6575
X3.7795Y-2.5787
X3.7795Y-2.6575
X4.8327Y-3.1693
X4.8819Y-3.1693
X4.9311Y-3.1693
X5.0Y-3.2677
X5.0984Y-3.2677
X5.1969Y-3.2677
X5.2756Y-2.8346
X5.2756Y-3.0413
X5.3346Y-2.8346
X5.3346Y-3.0413
X5.3937Y-2.8346
X5.3937Y-3.0413
X5.4921Y-2.8346
X5.5217Y-4.0945
X5.6496Y-2.9921
X5.6496Y-3.0512
X5.6496Y-3.1102
X5.6701Y-3.9559
X5.6701Y-4.0937
X5.6701Y-4.2315
X5.6988Y-2.9921
X5.6988Y-3.0512
X5.6988Y-3.1102
X5.7685Y-3.9559
X5.7685Y-4.0937
X5.7685Y-4.2315
X5.8669Y-3.9559
X5.8669Y-4.0937
X5.8669Y-4.2315
T4
X2.0719Y-2.185
X2.0719Y-5.8858
X2.0935Y-2.1328
X2.0935Y-2.2372
X2.0935Y-5.8336
X2.0935Y-5.938
X2.1457Y-2.1112
X2.1457Y-2.2589
X2.1457Y-5.812
X2.1457Y-5.9596
X2.1979Y-2.1328
X2.1979Y-2.2372
X2.1979Y-5.8336
X2.1979Y-5.938
X2.2195Y-2.185
X2.2195Y-5.8858
X5.7726Y-2.185
X5.7726Y-5.8858
X5.7943Y-2.1328
X5.7943Y-2.2372
X5.7943Y-5.8336
X5.7943Y-5.938
X5.8465Y-2.1112
X5.8465Y-2.2589
X5.8465Y-5.812
X5.8465Y-5.9596
X5.8987Y-2.1328
X5.8987Y-2.2372
X5.8987Y-5.8336
X5.8987Y-5.938
X5.9203Y-2.185
X5.9203Y-5.8858
T6
X2.0923Y-2.8486
X2.0923Y-2.9577
X2.0923Y-3.0667
X2.0923Y-3.1758
X2.1063Y-3.9551
X2.1063Y-4.0551
X2.1063Y-4.1551
X2.1063Y-5.373
X2.1063Y-5.473
X2.1063Y-5.573
X2.2041Y-2.7941
X2.2041Y-2.9031
X2.2041Y-3.0122
X2.2041Y-3.1213
X2.2041Y-3.2303
X2.4114Y-2.1441
X2.4114Y-2.2441
X2.5114Y-2.1441
X2.5114Y-2.2441
X2.6114Y-2.1441
X2.6114Y-2.2441
X2.7114Y-2.1441
X2.7114Y-2.2441
X2.8114Y-2.1441
X2.8114Y-2.2441
X2.9114Y-2.1441
X2.9114Y-2.2441
X2.9616Y-3.9055
X2.9616Y-4.0055
X2.9616Y-4.1055
X2.9616Y-4.2055
X3.0114Y-2.1441
X3.0114Y-2.2441
X3.0616Y-3.9055
X3.0616Y-4.0055
X3.0616Y-4.1055
X3.0616Y-4.2055
X3.1114Y-2.1441
X3.1114Y-2.2441
X3.2114Y-2.1441
X3.2114Y-2.2441
X3.2776Y-2.6083
X3.2776Y-2.7083
X3.2776Y-2.8083
X3.2776Y-2.9083
X3.2776Y-3.0083
X3.7677Y-4.714
X3.7677Y-4.814
X3.8677Y-4.714
X3.8677Y-4.814
X3.9677Y-4.714
X3.9677Y-4.814
X4.0677Y-4.714
X4.0677Y-4.814
X4.2028Y-2.6083
X4.2028Y-2.7083
X4.2028Y-2.8083
X4.2028Y-2.9083
X4.2028Y-3.0083
X4.2504Y-5.9252
X4.2815Y-2.1441
X4.3504Y-5.9252
X4.3815Y-2.1441
X4.4815Y-2.1441
X4.5171Y-5.9252
X4.5815Y-2.1441
X4.6171Y-5.9252
X4.6815Y-2.1441
X4.7726Y-3.9055
X4.7726Y-4.0055
X4.7726Y-4.1055
X4.7726Y-4.2055
X4.773Y-5.9252
X4.7815Y-2.1441
X4.8726Y-3.9055
X4.8726Y-4.0055
X4.8726Y-4.1055
X4.8726Y-4.2055
X4.873Y-5.9252
X4.8815Y-2.1441
X4.9815Y-2.1441
X5.0346Y-5.9252
X5.0815Y-2.1441
X5.1346Y-5.9252
X5.1815Y-2.1441
X5.2346Y-5.9252
X5.2815Y-2.1441
X5.3346Y-5.9252
X5.3815Y-2.1441
X5.4815Y-2.1441
X5.4906Y-5.9252
X5.5815Y-2.1441
X5.5906Y-5.9252
X5.7382Y-3.4843
X5.8071Y-2.3697
X5.8071Y-2.4697
X5.8071Y-2.5697
X5.8071Y-2.6697
X5.8071Y-2.7697
X5.8366Y-3.4843
X5.8848Y-4.8659
X5.8848Y-4.9659
X5.8848Y-5.0659
X5.8848Y-5.1659
X5.8848Y-5.2659
X5.8848Y-5.3659
X5.8848Y-5.4659
X5.8848Y-5.5659
X5.8858Y-4.3996
X5.8858Y-4.4996
X5.8858Y-4.5996
X5.9071Y-2.3697
X5.9071Y-2.4697
X5.9071Y-2.5697
X5.9071Y-2.6697
X5.9071Y-2.7697
T7
X2.1457Y-2.185
X2.1457Y-5.8858
X5.8465Y-2.185
X5.8465Y-5.8858
T8
X2.1923Y-2.5201
X2.1923Y-3.5043
T4
G00X2.9724Y-5.9026
M15
G01X2.9724Y-5.9281
M16
G05
G00X3.248Y-5.9026
M15
G01X3.248Y-5.9281
M16
G05
G00X5.8632Y-3.061
M15
G01X5.8888Y-3.061
M16
G05
G00X5.8632Y-3.3366
M15
G01X5.8888Y-3.3366
M16
G05
T5
G00X3.0059Y-5.8091
M15
G01X3.0177Y-5.8091
M16
G05
G00X3.2028Y-5.8091
M15
G01X3.2146Y-5.8091
M16
G05
G00X5.7697Y-3.1063
M15
G01X5.7697Y-3.0945
M16
G05
G00X5.7697Y-3.3031
M15
G01X5.7697Y-3.2913
M16
G05
T0
M30
